<?xml version="1.0" encoding="UTF-8" standalone="no"?>
<!DOCTYPE svg PUBLIC "-//W3C//DTD SVG 1.1//EN"
 "http://www.w3.org/Graphics/SVG/1.1/DTD/svg11.dtd">
<!-- Generated by graphviz version 2.43.0 (0)
 -->
<!-- Title: mlir::python::MLIR_BINDINGS_PYTHON_DOMAIN::PyOpOperandList Pages: 1 -->
<svg width="192pt" height="207pt"
 viewBox="0.00 0.00 192.00 207.00" xmlns="http://www.w3.org/2000/svg" xmlns:xlink="http://www.w3.org/1999/xlink">
<g id="graph0" class="graph" transform="scale(1 1) rotate(0) translate(4 203)">
<title>mlir::python::MLIR_BINDINGS_PYTHON_DOMAIN::PyOpOperandList</title>
<!-- Node1 -->
<g id="node1" class="node">
<title>Node1</title>
<g id="a_node1"><a xlink:title="A list of operation operands.">
<polygon fill="#bfbfbf" stroke="black" points="0.5,-0.5 0.5,-41.5 163.5,-41.5 163.5,-0.5 0.5,-0.5"/>
<text text-anchor="start" x="8.5" y="-29.5" font-family="Helvetica,sans-Serif" font-size="10.00">mlir::python::MLIR</text>
<text text-anchor="start" x="8.5" y="-18.5" font-family="Helvetica,sans-Serif" font-size="10.00">_BINDINGS_PYTHON_DOMAIN</text>
<text text-anchor="middle" x="82" y="-7.5" font-family="Helvetica,sans-Serif" font-size="10.00">::PyOpOperandList</text>
</a>
</g>
</g>
<!-- Node2 -->
<g id="node2" class="node">
<title>Node2</title>
<g id="a_node2"><a xlink:href="classmlir_1_1Sliceable.html" target="_top" xlink:title=" ">
<polygon fill="none" stroke="black" points="0,-79.5 0,-109.5 164,-109.5 164,-79.5 0,-79.5"/>
<text text-anchor="start" x="8" y="-97.5" font-family="Helvetica,sans-Serif" font-size="10.00">mlir::Sliceable&lt; PyOpOperand</text>
<text text-anchor="middle" x="82" y="-86.5" font-family="Helvetica,sans-Serif" font-size="10.00">List, PyValue &gt;</text>
</a>
</g>
</g>
<!-- Node2&#45;&gt;Node1 -->
<g id="edge1" class="edge">
<title>Node2&#45;&gt;Node1</title>
<path fill="none" stroke="midnightblue" d="M82,-69.1C82,-60.1 82,-50.02 82,-41.51"/>
<polygon fill="midnightblue" stroke="midnightblue" points="78.5,-69.37 82,-79.37 85.5,-69.37 78.5,-69.37"/>
</g>
<!-- Node3 -->
<g id="node3" class="node">
<title>Node3</title>
<g id="a_node3"><a xlink:href="classmlir_1_1Sliceable.html" target="_top" xlink:title="A CRTP base class for pseudo&#45;containers willing to support Python&#45;type slicing access on top of index...">
<polygon fill="none" stroke="black" points="12.5,-168.5 12.5,-198.5 151.5,-198.5 151.5,-168.5 12.5,-168.5"/>
<text text-anchor="start" x="20.5" y="-186.5" font-family="Helvetica,sans-Serif" font-size="10.00">mlir::Sliceable&lt; Derived,</text>
<text text-anchor="middle" x="82" y="-175.5" font-family="Helvetica,sans-Serif" font-size="10.00"> ElementTy &gt;</text>
</a>
</g>
</g>
<!-- Node3&#45;&gt;Node2 -->
<g id="edge2" class="edge">
<title>Node3&#45;&gt;Node2</title>
<path fill="none" stroke="orange" stroke-dasharray="5,2" d="M82,-158.09C82,-142.44 82,-122.68 82,-109.6"/>
<polygon fill="orange" stroke="orange" points="78.5,-158.13 82,-168.13 85.5,-158.13 78.5,-158.13"/>
<text text-anchor="start" x="82" y="-142" font-family="Helvetica,sans-Serif" font-size="10.00"> &lt; PyOpOperandList,</text>
<text text-anchor="middle" x="133" y="-131" font-family="Helvetica,sans-Serif" font-size="10.00"> PyValue &gt;</text>
</g>
</g>
</svg>
