<?xml version="1.0" encoding="UTF-8" standalone="no"?>
<!DOCTYPE svg PUBLIC "-//W3C//DTD SVG 1.1//EN"
 "http://www.w3.org/Graphics/SVG/1.1/DTD/svg11.dtd">
<!-- Generated by graphviz version 2.43.0 (0)
 -->
<!-- Title: mlir::ConvertToLLVMPattern Pages: 1 -->
<svg width="1468pt" height="806pt"
 viewBox="0.00 0.00 1468.00 805.50" xmlns="http://www.w3.org/2000/svg" xmlns:xlink="http://www.w3.org/1999/xlink">
<g id="graph0" class="graph" transform="scale(1 1) rotate(0) translate(4 801.5)">
<title>mlir::ConvertToLLVMPattern</title>
<!-- Node1 -->
<g id="node1" class="node">
<title>Node1</title>
<g id="a_node1"><a xlink:title="Base class for operation conversions targeting the LLVM IR dialect.">
<polygon fill="#bfbfbf" stroke="black" points="433,-317 433,-336 584,-336 584,-317 433,-317"/>
<text text-anchor="middle" x="508.5" y="-324" font-family="Helvetica,sans-Serif" font-size="10.00">mlir::ConvertToLLVMPattern</text>
</a>
</g>
</g>
<!-- Node5 -->
<g id="node5" class="node">
<title>Node5</title>
<g id="a_node5"><a xlink:href="classmlir_1_1ConvertOpToLLVMPattern.html" target="_top" xlink:title=" ">
<polygon fill="none" stroke="black" points="1052,-761.5 1052,-791.5 1216,-791.5 1216,-761.5 1052,-761.5"/>
<text text-anchor="start" x="1060" y="-779.5" font-family="Helvetica,sans-Serif" font-size="10.00">mlir::ConvertOpToLLVMPattern</text>
<text text-anchor="middle" x="1134" y="-768.5" font-family="Helvetica,sans-Serif" font-size="10.00">&lt; Op &gt;</text>
</a>
</g>
</g>
<!-- Node1&#45;&gt;Node5 -->
<g id="edge4" class="edge">
<title>Node1&#45;&gt;Node5</title>
<path fill="none" stroke="midnightblue" d="M509.14,-346.45C509.16,-408 518.02,-596.62 621,-693.5 737.74,-803.33 939.67,-800.56 1051.88,-788.67"/>
<polygon fill="midnightblue" stroke="midnightblue" points="512.64,-346.22 509.22,-336.19 505.64,-346.16 512.64,-346.22"/>
</g>
<!-- Node7 -->
<g id="node7" class="node">
<title>Node7</title>
<g id="a_node7"><a xlink:href="classmlir_1_1ConvertOpToLLVMPattern.html" target="_top" xlink:title=" ">
<polygon fill="none" stroke="black" points="1052,-643.5 1052,-673.5 1216,-673.5 1216,-643.5 1052,-643.5"/>
<text text-anchor="start" x="1060" y="-661.5" font-family="Helvetica,sans-Serif" font-size="10.00">mlir::ConvertOpToLLVMPattern</text>
<text text-anchor="middle" x="1134" y="-650.5" font-family="Helvetica,sans-Serif" font-size="10.00">&lt; math::SincosOp, true &gt;</text>
</a>
</g>
</g>
<!-- Node1&#45;&gt;Node7 -->
<g id="edge6" class="edge">
<title>Node1&#45;&gt;Node7</title>
<path fill="none" stroke="midnightblue" d="M513.58,-346.24C523.86,-391.45 554.89,-503.69 621,-569.5 749.12,-697.03 835.33,-672.67 1016,-666.5 1027.6,-666.1 1039.83,-665.49 1051.84,-664.77"/>
<polygon fill="midnightblue" stroke="midnightblue" points="516.95,-345.28 511.4,-336.25 510.11,-346.77 516.95,-345.28"/>
</g>
<!-- Node9 -->
<g id="node9" class="node">
<title>Node9</title>
<g id="a_node9"><a xlink:href="classmlir_1_1ConvertOpToLLVMPattern.html" target="_top" xlink:title=" ">
<polygon fill="none" stroke="black" points="1052,-529.5 1052,-559.5 1216,-559.5 1216,-529.5 1052,-529.5"/>
<text text-anchor="start" x="1060" y="-547.5" font-family="Helvetica,sans-Serif" font-size="10.00">mlir::ConvertOpToLLVMPattern</text>
<text text-anchor="middle" x="1134" y="-536.5" font-family="Helvetica,sans-Serif" font-size="10.00">&lt; gpu::PrintfOp &gt;</text>
</a>
</g>
</g>
<!-- Node1&#45;&gt;Node9 -->
<g id="edge8" class="edge">
<title>Node1&#45;&gt;Node9</title>
<path fill="none" stroke="midnightblue" d="M522.99,-344.19C542.5,-368.87 580.7,-413.94 621,-443.5 706.43,-506.16 731.8,-524.55 835,-548.5 906.95,-565.2 991.32,-562.03 1051.88,-555.96"/>
<polygon fill="midnightblue" stroke="midnightblue" points="525.58,-341.82 516.68,-336.08 520.06,-346.12 525.58,-341.82"/>
</g>
<!-- Node13 -->
<g id="node13" class="node">
<title>Node13</title>
<g id="a_node13"><a xlink:href="classmlir_1_1ConvertOpToLLVMPattern.html" target="_top" xlink:title=" ">
<polygon fill="none" stroke="black" points="1052,-693.5 1052,-723.5 1216,-723.5 1216,-693.5 1052,-693.5"/>
<text text-anchor="start" x="1060" y="-711.5" font-family="Helvetica,sans-Serif" font-size="10.00">mlir::ConvertOpToLLVMPattern</text>
<text text-anchor="middle" x="1134" y="-700.5" font-family="Helvetica,sans-Serif" font-size="10.00">&lt; math::ClampFOp &gt;</text>
</a>
</g>
</g>
<!-- Node1&#45;&gt;Node13 -->
<g id="edge12" class="edge">
<title>Node1&#45;&gt;Node13</title>
<path fill="none" stroke="midnightblue" d="M511.31,-346.33C517.19,-399.69 540.31,-548.02 621,-633.5 732.31,-751.42 941.19,-740.34 1054.71,-723.55"/>
<polygon fill="midnightblue" stroke="midnightblue" points="514.77,-345.78 510.28,-336.18 507.81,-346.48 514.77,-345.78"/>
</g>
<!-- Node15 -->
<g id="node15" class="node">
<title>Node15</title>
<g id="a_node15"><a xlink:href="classmlir_1_1ConvertOpToLLVMPattern.html" target="_top" xlink:title=" ">
<polygon fill="none" stroke="black" points="1052,-321.5 1052,-351.5 1216,-351.5 1216,-321.5 1052,-321.5"/>
<text text-anchor="start" x="1060" y="-339.5" font-family="Helvetica,sans-Serif" font-size="10.00">mlir::ConvertOpToLLVMPattern</text>
<text text-anchor="middle" x="1134" y="-328.5" font-family="Helvetica,sans-Serif" font-size="10.00">&lt; gpu::GPUFuncOp &gt;</text>
</a>
</g>
</g>
<!-- Node1&#45;&gt;Node15 -->
<g id="edge14" class="edge">
<title>Node1&#45;&gt;Node15</title>
<path fill="none" stroke="midnightblue" d="M594.36,-327.86C714.75,-329.79 933.62,-333.3 1051.91,-335.2"/>
<polygon fill="midnightblue" stroke="midnightblue" points="594.14,-324.36 584.09,-327.7 594.03,-331.36 594.14,-324.36"/>
</g>
<!-- Node17 -->
<g id="node17" class="node">
<title>Node17</title>
<g id="a_node17"><a xlink:href="classmlir_1_1ConvertOpToLLVMPattern.html" target="_top" xlink:title=" ">
<polygon fill="none" stroke="black" points="1052,-219.5 1052,-249.5 1216,-249.5 1216,-219.5 1052,-219.5"/>
<text text-anchor="start" x="1060" y="-237.5" font-family="Helvetica,sans-Serif" font-size="10.00">mlir::ConvertOpToLLVMPattern</text>
<text text-anchor="middle" x="1134" y="-226.5" font-family="Helvetica,sans-Serif" font-size="10.00">&lt; SourceOp, false &gt;</text>
</a>
</g>
</g>
<!-- Node1&#45;&gt;Node17 -->
<g id="edge16" class="edge">
<title>Node1&#45;&gt;Node17</title>
<path fill="none" stroke="midnightblue" d="M538.95,-312.77C561.18,-302.72 592.6,-289.21 621,-279.5 714.13,-247.64 737.41,-235.27 835,-222.5 914.76,-212.06 935.66,-218.39 1016,-222.5 1027.62,-223.09 1039.87,-224.02 1051.89,-225.1"/>
<polygon fill="midnightblue" stroke="midnightblue" points="537.37,-309.64 529.72,-316.97 540.27,-316.01 537.37,-309.64"/>
</g>
<!-- Node19 -->
<g id="node19" class="node">
<title>Node19</title>
<g id="a_node19"><a xlink:href="classmlir_1_1ConvertOpToLLVMPattern.html" target="_top" xlink:title=" ">
<polygon fill="none" stroke="black" points="1052,-169.5 1052,-199.5 1216,-199.5 1216,-169.5 1052,-169.5"/>
<text text-anchor="start" x="1060" y="-187.5" font-family="Helvetica,sans-Serif" font-size="10.00">mlir::ConvertOpToLLVMPattern</text>
<text text-anchor="middle" x="1134" y="-176.5" font-family="Helvetica,sans-Serif" font-size="10.00">&lt; gpu::ReturnOp &gt;</text>
</a>
</g>
</g>
<!-- Node1&#45;&gt;Node19 -->
<g id="edge18" class="edge">
<title>Node1&#45;&gt;Node19</title>
<path fill="none" stroke="midnightblue" d="M523.54,-308.67C542.96,-285.21 580.26,-244.29 621,-221.5 775.86,-134.87 839.26,-147.76 1016,-163.5 1030.59,-164.8 1046.09,-166.99 1060.87,-169.49"/>
<polygon fill="midnightblue" stroke="midnightblue" points="520.58,-306.76 517,-316.73 526.02,-311.17 520.58,-306.76"/>
</g>
<!-- Node21 -->
<g id="node21" class="node">
<title>Node21</title>
<g id="a_node21"><a xlink:href="classmlir_1_1ConvertOpToLLVMPattern.html" target="_top" xlink:title=" ">
<polygon fill="none" stroke="black" points="1052,-594.5 1052,-624.5 1216,-624.5 1216,-594.5 1052,-594.5"/>
<text text-anchor="start" x="1060" y="-612.5" font-family="Helvetica,sans-Serif" font-size="10.00">mlir::ConvertOpToLLVMPattern</text>
<text text-anchor="middle" x="1134" y="-601.5" font-family="Helvetica,sans-Serif" font-size="10.00">&lt; math::SincosOp &gt;</text>
</a>
</g>
</g>
<!-- Node1&#45;&gt;Node21 -->
<g id="edge20" class="edge">
<title>Node1&#45;&gt;Node21</title>
<path fill="none" stroke="midnightblue" d="M516.74,-345.53C531.35,-381.69 567.59,-460.97 621,-508.5 699.29,-578.17 732.73,-584.63 835,-607.5 907.07,-623.62 991.43,-622.38 1051.96,-618.13"/>
<polygon fill="midnightblue" stroke="midnightblue" points="519.97,-344.18 513.05,-336.15 513.45,-346.74 519.97,-344.18"/>
</g>
<!-- Node22 -->
<g id="node22" class="node">
<title>Node22</title>
<g id="a_node22"><a xlink:href="classmlir_1_1ConvertOpToLLVMPattern.html" target="_top" xlink:title=" ">
<polygon fill="none" stroke="black" points="1052,-112.5 1052,-142.5 1216,-142.5 1216,-112.5 1052,-112.5"/>
<text text-anchor="start" x="1060" y="-130.5" font-family="Helvetica,sans-Serif" font-size="10.00">mlir::ConvertOpToLLVMPattern</text>
<text text-anchor="middle" x="1134" y="-119.5" font-family="Helvetica,sans-Serif" font-size="10.00">&lt; memref::TransposeOp &gt;</text>
</a>
</g>
</g>
<!-- Node1&#45;&gt;Node22 -->
<g id="edge22" class="edge">
<title>Node1&#45;&gt;Node22</title>
<path fill="none" stroke="midnightblue" d="M516.04,-307C529.46,-270.15 563.75,-190.42 621,-150.5 760.59,-53.17 977.37,-88.43 1078.1,-112.49"/>
<polygon fill="midnightblue" stroke="midnightblue" points="512.69,-305.98 512.67,-316.58 519.29,-308.3 512.69,-305.98"/>
</g>
<!-- Node24 -->
<g id="node24" class="node">
<title>Node24</title>
<g id="a_node24"><a xlink:href="classmlir_1_1ConvertOpToLLVMPattern.html" target="_top" xlink:title=" ">
<polygon fill="none" stroke="black" points="1037,-61.5 1037,-91.5 1231,-91.5 1231,-61.5 1037,-61.5"/>
<text text-anchor="start" x="1045" y="-79.5" font-family="Helvetica,sans-Serif" font-size="10.00">mlir::ConvertOpToLLVMPattern</text>
<text text-anchor="middle" x="1134" y="-68.5" font-family="Helvetica,sans-Serif" font-size="10.00">&lt; gpu::DynamicSharedMemoryOp &gt;</text>
</a>
</g>
</g>
<!-- Node1&#45;&gt;Node24 -->
<g id="edge24" class="edge">
<title>Node1&#45;&gt;Node24</title>
<path fill="none" stroke="midnightblue" d="M511.68,-306.75C518.15,-258.7 542.05,-135.92 621,-84.5 687.11,-41.44 907.69,-54.24 1036.75,-66.15"/>
<polygon fill="midnightblue" stroke="midnightblue" points="508.19,-306.43 510.44,-316.78 515.14,-307.29 508.19,-306.43"/>
</g>
<!-- Node26 -->
<g id="node26" class="node">
<title>Node26</title>
<g id="a_node26"><a xlink:href="classmlir_1_1ConvertOpToLLVMPattern.html" target="_top" xlink:title=" ">
<polygon fill="none" stroke="black" points="1052,-272.5 1052,-302.5 1216,-302.5 1216,-272.5 1052,-272.5"/>
<text text-anchor="start" x="1060" y="-290.5" font-family="Helvetica,sans-Serif" font-size="10.00">mlir::ConvertOpToLLVMPattern</text>
<text text-anchor="middle" x="1134" y="-279.5" font-family="Helvetica,sans-Serif" font-size="10.00">&lt; cf::AssertOp &gt;</text>
</a>
</g>
</g>
<!-- Node1&#45;&gt;Node26 -->
<g id="edge26" class="edge">
<title>Node1&#45;&gt;Node26</title>
<path fill="none" stroke="midnightblue" d="M572.12,-315.24C637.46,-304.1 743.03,-287.83 835,-281.5 915.25,-275.98 935.58,-279.44 1016,-281.5 1027.59,-281.8 1039.82,-282.26 1051.83,-282.8"/>
<polygon fill="midnightblue" stroke="midnightblue" points="571.24,-311.84 561.98,-316.98 572.43,-318.74 571.24,-311.84"/>
</g>
<!-- Node28 -->
<g id="node28" class="node">
<title>Node28</title>
<g id="a_node28"><a xlink:href="classmlir_1_1ConvertOpInterfaceToLLVMPattern.html" target="_top" xlink:title="Utility class for operation conversions targeting the LLVM dialect that allows for matching and rewri...">
<polygon fill="none" stroke="black" points="641,-0.5 641,-30.5 797,-30.5 797,-0.5 641,-0.5"/>
<text text-anchor="start" x="649" y="-18.5" font-family="Helvetica,sans-Serif" font-size="10.00">mlir::ConvertOpInterface</text>
<text text-anchor="middle" x="719" y="-7.5" font-family="Helvetica,sans-Serif" font-size="10.00">ToLLVMPattern&lt; SourceOp &gt;</text>
</a>
</g>
</g>
<!-- Node1&#45;&gt;Node28 -->
<g id="edge28" class="edge">
<title>Node1&#45;&gt;Node28</title>
<path fill="none" stroke="midnightblue" d="M509.87,-306.75C511.96,-255.61 524.83,-117.82 602,-45.5 612.78,-35.4 626.5,-28.6 640.7,-24.04"/>
<polygon fill="midnightblue" stroke="midnightblue" points="506.37,-306.7 509.56,-316.8 513.37,-306.92 506.37,-306.7"/>
</g>
<!-- Node29 -->
<g id="node29" class="node">
<title>Node29</title>
<g id="a_node29"><a xlink:href="classmlir_1_1ConvertOpToLLVMPattern.html" target="_top" xlink:title="Utility class for operation conversions targeting the LLVM dialect that match exactly one source oper...">
<polygon fill="none" stroke="black" points="621,-404.5 621,-434.5 817,-434.5 817,-404.5 621,-404.5"/>
<text text-anchor="start" x="629" y="-422.5" font-family="Helvetica,sans-Serif" font-size="10.00">mlir::ConvertOpToLLVMPattern</text>
<text text-anchor="middle" x="719" y="-411.5" font-family="Helvetica,sans-Serif" font-size="10.00">&lt; SourceOp, FailOnUnsupportedFP &gt;</text>
</a>
</g>
</g>
<!-- Node1&#45;&gt;Node29 -->
<g id="edge29" class="edge">
<title>Node1&#45;&gt;Node29</title>
<path fill="none" stroke="midnightblue" d="M540.19,-340.19C578.67,-357.35 644.4,-386.67 684.26,-404.45"/>
<polygon fill="midnightblue" stroke="midnightblue" points="541.59,-336.98 531.03,-336.1 538.73,-343.37 541.59,-336.98"/>
</g>
<!-- Node2 -->
<g id="node2" class="node">
<title>Node2</title>
<g id="a_node2"><a xlink:href="classmlir_1_1ConversionPattern.html" target="_top" xlink:title="Base class for the conversion patterns.">
<polygon fill="none" stroke="black" points="265,-317 265,-336 396,-336 396,-317 265,-317"/>
<text text-anchor="middle" x="330.5" y="-324" font-family="Helvetica,sans-Serif" font-size="10.00">mlir::ConversionPattern</text>
</a>
</g>
</g>
<!-- Node2&#45;&gt;Node1 -->
<g id="edge1" class="edge">
<title>Node2&#45;&gt;Node1</title>
<path fill="none" stroke="midnightblue" d="M406.26,-326.5C415.06,-326.5 424.04,-326.5 432.84,-326.5"/>
<polygon fill="midnightblue" stroke="midnightblue" points="406.04,-323 396.04,-326.5 406.04,-330 406.04,-323"/>
</g>
<!-- Node3 -->
<g id="node3" class="node">
<title>Node3</title>
<g id="a_node3"><a xlink:href="classmlir_1_1RewritePattern.html" target="_top" xlink:title="RewritePattern is the common base class for all DAG to DAG replacements.">
<polygon fill="none" stroke="black" points="114,-317 114,-336 228,-336 228,-317 114,-317"/>
<text text-anchor="middle" x="171" y="-324" font-family="Helvetica,sans-Serif" font-size="10.00">mlir::RewritePattern</text>
</a>
</g>
</g>
<!-- Node3&#45;&gt;Node2 -->
<g id="edge2" class="edge">
<title>Node3&#45;&gt;Node2</title>
<path fill="none" stroke="midnightblue" d="M238.54,-326.5C247.27,-326.5 256.21,-326.5 264.9,-326.5"/>
<polygon fill="midnightblue" stroke="midnightblue" points="238.42,-323 228.42,-326.5 238.42,-330 238.42,-323"/>
</g>
<!-- Node4 -->
<g id="node4" class="node">
<title>Node4</title>
<g id="a_node4"><a xlink:href="classmlir_1_1Pattern.html" target="_top" xlink:title="This class contains all of the data related to a pattern, but does not contain any methods or logic f...">
<polygon fill="none" stroke="black" points="0,-317 0,-336 77,-336 77,-317 0,-317"/>
<text text-anchor="middle" x="38.5" y="-324" font-family="Helvetica,sans-Serif" font-size="10.00">mlir::Pattern</text>
</a>
</g>
</g>
<!-- Node4&#45;&gt;Node3 -->
<g id="edge3" class="edge">
<title>Node4&#45;&gt;Node3</title>
<path fill="none" stroke="midnightblue" d="M87.47,-326.5C96.06,-326.5 105.09,-326.5 113.89,-326.5"/>
<polygon fill="midnightblue" stroke="midnightblue" points="87.25,-323 77.25,-326.5 87.25,-330 87.25,-323"/>
</g>
<!-- Node6 -->
<g id="node6" class="node">
<title>Node6</title>
<g id="a_node6"><a xlink:href="structmlir_1_1gpu_1_1index__lowering_1_1OpLowering.html" target="_top" xlink:title=" ">
<polygon fill="none" stroke="black" points="1295.5,-756 1295.5,-797 1435.5,-797 1435.5,-756 1295.5,-756"/>
<text text-anchor="start" x="1303.5" y="-785" font-family="Helvetica,sans-Serif" font-size="10.00">mlir::gpu::index_lowering</text>
<text text-anchor="start" x="1303.5" y="-774" font-family="Helvetica,sans-Serif" font-size="10.00">::OpLowering&lt; Op, XOp,</text>
<text text-anchor="middle" x="1365.5" y="-763" font-family="Helvetica,sans-Serif" font-size="10.00"> YOp, ZOp &gt;</text>
</a>
</g>
</g>
<!-- Node5&#45;&gt;Node6 -->
<g id="edge5" class="edge">
<title>Node5&#45;&gt;Node6</title>
<path fill="none" stroke="midnightblue" d="M1226.32,-776.5C1249.26,-776.5 1273.5,-776.5 1295.16,-776.5"/>
<polygon fill="midnightblue" stroke="midnightblue" points="1226.24,-773 1216.24,-776.5 1226.24,-780 1226.24,-773"/>
</g>
<!-- Node8 -->
<g id="node8" class="node">
<title>Node8</title>
<g id="a_node8"><a xlink:href="structSincosOpLowering.html" target="_top" xlink:title=" ">
<polygon fill="none" stroke="black" points="1312.5,-645 1312.5,-664 1418.5,-664 1418.5,-645 1312.5,-645"/>
<text text-anchor="middle" x="1365.5" y="-652" font-family="Helvetica,sans-Serif" font-size="10.00">SincosOpLowering</text>
</a>
</g>
</g>
<!-- Node7&#45;&gt;Node8 -->
<g id="edge7" class="edge">
<title>Node7&#45;&gt;Node8</title>
<path fill="none" stroke="midnightblue" d="M1226.47,-656.91C1255.68,-656.4 1286.99,-655.85 1312.4,-655.41"/>
<polygon fill="midnightblue" stroke="midnightblue" points="1226.17,-653.41 1216.24,-657.08 1226.3,-660.41 1226.17,-653.41"/>
</g>
<!-- Node10 -->
<g id="node10" class="node">
<title>Node10</title>
<g id="a_node10"><a xlink:href="structmlir_1_1GPUPrintfOpToHIPLowering.html" target="_top" xlink:title="The lowering of gpu.printf to a call to HIP hostcalls.">
<polygon fill="none" stroke="black" points="1278.5,-491 1278.5,-510 1452.5,-510 1452.5,-491 1278.5,-491"/>
<text text-anchor="middle" x="1365.5" y="-498" font-family="Helvetica,sans-Serif" font-size="10.00">mlir::GPUPrintfOpToHIPLowering</text>
</a>
</g>
</g>
<!-- Node9&#45;&gt;Node10 -->
<g id="edge9" class="edge">
<title>Node9&#45;&gt;Node10</title>
<path fill="none" stroke="midnightblue" d="M1223.31,-527.57C1254.37,-521.61 1288.15,-515.14 1314.88,-510.01"/>
<polygon fill="midnightblue" stroke="midnightblue" points="1222.5,-524.16 1213.34,-529.48 1223.82,-531.04 1222.5,-524.16"/>
</g>
<!-- Node11 -->
<g id="node11" class="node">
<title>Node11</title>
<g id="a_node11"><a xlink:href="structmlir_1_1GPUPrintfOpToLLVMCallLowering.html" target="_top" xlink:title="The lowering of gpu.printf to a call to an external printf() function.">
<polygon fill="none" stroke="black" points="1286.5,-578.5 1286.5,-608.5 1444.5,-608.5 1444.5,-578.5 1286.5,-578.5"/>
<text text-anchor="start" x="1294.5" y="-596.5" font-family="Helvetica,sans-Serif" font-size="10.00">mlir::GPUPrintfOpToLLVMCall</text>
<text text-anchor="middle" x="1365.5" y="-585.5" font-family="Helvetica,sans-Serif" font-size="10.00">Lowering</text>
</a>
</g>
</g>
<!-- Node9&#45;&gt;Node11 -->
<g id="edge10" class="edge">
<title>Node9&#45;&gt;Node11</title>
<path fill="none" stroke="midnightblue" d="M1215.49,-561.69C1241.15,-567.16 1269.33,-573.18 1294.22,-578.49"/>
<polygon fill="midnightblue" stroke="midnightblue" points="1215.93,-558.2 1205.42,-559.53 1214.47,-565.05 1215.93,-558.2"/>
</g>
<!-- Node12 -->
<g id="node12" class="node">
<title>Node12</title>
<g id="a_node12"><a xlink:href="structmlir_1_1GPUPrintfOpToVPrintfLowering.html" target="_top" xlink:title="Lowering of gpu.printf to a vprintf standard library.">
<polygon fill="none" stroke="black" points="1292.5,-529.5 1292.5,-559.5 1438.5,-559.5 1438.5,-529.5 1292.5,-529.5"/>
<text text-anchor="start" x="1300.5" y="-547.5" font-family="Helvetica,sans-Serif" font-size="10.00">mlir::GPUPrintfOpToVPrintf</text>
<text text-anchor="middle" x="1365.5" y="-536.5" font-family="Helvetica,sans-Serif" font-size="10.00">Lowering</text>
</a>
</g>
</g>
<!-- Node9&#45;&gt;Node12 -->
<g id="edge11" class="edge">
<title>Node9&#45;&gt;Node12</title>
<path fill="none" stroke="midnightblue" d="M1226.51,-544.5C1248.33,-544.5 1271.33,-544.5 1292.16,-544.5"/>
<polygon fill="midnightblue" stroke="midnightblue" points="1226.24,-541 1216.24,-544.5 1226.24,-548 1226.24,-541"/>
</g>
<!-- Node14 -->
<g id="node14" class="node">
<title>Node14</title>
<g id="a_node14"><a xlink:href="structClampFOpConversion.html" target="_top" xlink:title=" ">
<polygon fill="none" stroke="black" points="1304.5,-699 1304.5,-718 1426.5,-718 1426.5,-699 1304.5,-699"/>
<text text-anchor="middle" x="1365.5" y="-706" font-family="Helvetica,sans-Serif" font-size="10.00">ClampFOpConversion</text>
</a>
</g>
</g>
<!-- Node13&#45;&gt;Node14 -->
<g id="edge13" class="edge">
<title>Node13&#45;&gt;Node14</title>
<path fill="none" stroke="midnightblue" d="M1226.55,-708.5C1252.71,-708.5 1280.55,-708.5 1304.32,-708.5"/>
<polygon fill="midnightblue" stroke="midnightblue" points="1226.24,-705 1216.24,-708.5 1226.24,-712 1226.24,-705"/>
</g>
<!-- Node16 -->
<g id="node16" class="node">
<title>Node16</title>
<g id="a_node16"><a xlink:href="structmlir_1_1GPUFuncOpLowering.html" target="_top" xlink:title=" ">
<polygon fill="none" stroke="black" points="1294,-327 1294,-346 1437,-346 1437,-327 1294,-327"/>
<text text-anchor="middle" x="1365.5" y="-334" font-family="Helvetica,sans-Serif" font-size="10.00">mlir::GPUFuncOpLowering</text>
</a>
</g>
</g>
<!-- Node15&#45;&gt;Node16 -->
<g id="edge15" class="edge">
<title>Node15&#45;&gt;Node16</title>
<path fill="none" stroke="midnightblue" d="M1226.42,-336.5C1248.8,-336.5 1272.41,-336.5 1293.66,-336.5"/>
<polygon fill="midnightblue" stroke="midnightblue" points="1226.24,-333 1216.24,-336.5 1226.24,-340 1226.24,-333"/>
</g>
<!-- Node18 -->
<g id="node18" class="node">
<title>Node18</title>
<g id="a_node18"><a xlink:href="classmlir_1_1VectorConvertToLLVMPattern.html" target="_top" xlink:title="Basic lowering implementation to rewrite Ops with just one result to the LLVM Dialect.">
<polygon fill="none" stroke="black" points="1271,-214 1271,-255 1460,-255 1460,-214 1271,-214"/>
<text text-anchor="start" x="1279" y="-243" font-family="Helvetica,sans-Serif" font-size="10.00">mlir::VectorConvertToLLVMPattern</text>
<text text-anchor="start" x="1279" y="-232" font-family="Helvetica,sans-Serif" font-size="10.00">&lt; SourceOp, TargetOp, AttrConvert,</text>
<text text-anchor="middle" x="1365.5" y="-221" font-family="Helvetica,sans-Serif" font-size="10.00"> FailOnUnsupportedFP &gt;</text>
</a>
</g>
</g>
<!-- Node17&#45;&gt;Node18 -->
<g id="edge17" class="edge">
<title>Node17&#45;&gt;Node18</title>
<path fill="none" stroke="midnightblue" d="M1226.28,-234.5C1240.94,-234.5 1256.12,-234.5 1270.83,-234.5"/>
<polygon fill="midnightblue" stroke="midnightblue" points="1226.24,-231 1216.24,-234.5 1226.24,-238 1226.24,-231"/>
</g>
<!-- Node20 -->
<g id="node20" class="node">
<title>Node20</title>
<g id="a_node20"><a xlink:href="structmlir_1_1GPUReturnOpLowering.html" target="_top" xlink:title=" ">
<polygon fill="none" stroke="black" points="1289,-175 1289,-194 1442,-194 1442,-175 1289,-175"/>
<text text-anchor="middle" x="1365.5" y="-182" font-family="Helvetica,sans-Serif" font-size="10.00">mlir::GPUReturnOpLowering</text>
</a>
</g>
</g>
<!-- Node19&#45;&gt;Node20 -->
<g id="edge19" class="edge">
<title>Node19&#45;&gt;Node20</title>
<path fill="none" stroke="midnightblue" d="M1226.3,-184.5C1247,-184.5 1268.77,-184.5 1288.75,-184.5"/>
<polygon fill="midnightblue" stroke="midnightblue" points="1226.24,-181 1216.24,-184.5 1226.24,-188 1226.24,-181"/>
</g>
<!-- Node21&#45;&gt;Node8 -->
<g id="edge21" class="edge">
<title>Node21&#45;&gt;Node8</title>
<path fill="none" stroke="midnightblue" d="M1221.95,-626.55C1253.77,-632.79 1288.63,-639.62 1315.91,-644.97"/>
<polygon fill="midnightblue" stroke="midnightblue" points="1222.23,-623.04 1211.74,-624.55 1220.88,-629.91 1222.23,-623.04"/>
</g>
<!-- Node23 -->
<g id="node23" class="node">
<title>Node23</title>
<g id="a_node23"><a xlink:href="classTransposeOpLowering.html" target="_top" xlink:title="Rewrite AVX2&#45;specific vector.transpose, for the supported cases and depending on the TransposeLowerin...">
<polygon fill="none" stroke="black" points="1304,-118 1304,-137 1427,-137 1427,-118 1304,-118"/>
<text text-anchor="middle" x="1365.5" y="-125" font-family="Helvetica,sans-Serif" font-size="10.00">TransposeOpLowering</text>
</a>
</g>
</g>
<!-- Node22&#45;&gt;Node23 -->
<g id="edge23" class="edge">
<title>Node22&#45;&gt;Node23</title>
<path fill="none" stroke="midnightblue" d="M1226.51,-127.5C1252.55,-127.5 1280.26,-127.5 1303.96,-127.5"/>
<polygon fill="midnightblue" stroke="midnightblue" points="1226.24,-124 1216.24,-127.5 1226.24,-131 1226.24,-124"/>
</g>
<!-- Node25 -->
<g id="node25" class="node">
<title>Node25</title>
<g id="a_node25"><a xlink:href="structmlir_1_1GPUDynamicSharedMemoryOpLowering.html" target="_top" xlink:title="Lowering for gpu.dynamic.shared.memory to LLVM dialect.">
<polygon fill="none" stroke="black" points="1275,-61.5 1275,-91.5 1456,-91.5 1456,-61.5 1275,-61.5"/>
<text text-anchor="start" x="1283" y="-79.5" font-family="Helvetica,sans-Serif" font-size="10.00">mlir::GPUDynamicSharedMemory</text>
<text text-anchor="middle" x="1365.5" y="-68.5" font-family="Helvetica,sans-Serif" font-size="10.00">OpLowering</text>
</a>
</g>
</g>
<!-- Node24&#45;&gt;Node25 -->
<g id="edge25" class="edge">
<title>Node24&#45;&gt;Node25</title>
<path fill="none" stroke="midnightblue" d="M1241.48,-76.5C1252.57,-76.5 1263.76,-76.5 1274.64,-76.5"/>
<polygon fill="midnightblue" stroke="midnightblue" points="1241.33,-73 1231.33,-76.5 1241.33,-80 1241.33,-73"/>
</g>
<!-- Node27 -->
<g id="node27" class="node">
<title>Node27</title>
<g id="a_node27"><a xlink:href="classAssertOpLowering.html" target="_top" xlink:title=" ">
<polygon fill="none" stroke="black" points="1313,-278 1313,-297 1418,-297 1418,-278 1313,-278"/>
<text text-anchor="middle" x="1365.5" y="-285" font-family="Helvetica,sans-Serif" font-size="10.00">AssertOpLowering</text>
</a>
</g>
</g>
<!-- Node26&#45;&gt;Node27 -->
<g id="edge27" class="edge">
<title>Node26&#45;&gt;Node27</title>
<path fill="none" stroke="midnightblue" d="M1226.51,-287.5C1255.84,-287.5 1287.29,-287.5 1312.74,-287.5"/>
<polygon fill="midnightblue" stroke="midnightblue" points="1226.24,-284 1216.24,-287.5 1226.24,-291 1226.24,-284"/>
</g>
<!-- Node29&#45;&gt;Node5 -->
<g id="edge33" class="edge">
<title>Node29&#45;&gt;Node5</title>
<path fill="none" stroke="orange" stroke-dasharray="5,2" d="M723.34,-444.81C731.79,-498.48 759.02,-624.28 835,-691.5 852.75,-707.21 987.31,-741.58 1069.43,-761.47"/>
<polygon fill="orange" stroke="orange" points="726.79,-444.16 721.85,-434.79 719.86,-445.19 726.79,-444.16"/>
<text text-anchor="middle" x="925.5" y="-749.5" font-family="Helvetica,sans-Serif" font-size="10.00"> &lt; Op &gt;</text>
</g>
<!-- Node29&#45;&gt;Node7 -->
<g id="edge34" class="edge">
<title>Node29&#45;&gt;Node7</title>
<path fill="none" stroke="orange" stroke-dasharray="5,2" d="M731.7,-444.19C749.25,-478.51 785.68,-540.17 835,-573.5 903.96,-620.1 940.79,-585.87 1016,-621.5 1024.92,-625.72 1025.04,-630.37 1034,-634.5 1041.39,-637.9 1049.32,-640.86 1057.36,-643.42"/>
<polygon fill="orange" stroke="orange" points="734.65,-442.27 727.06,-434.88 728.39,-445.39 734.65,-442.27"/>
<text text-anchor="middle" x="925.5" y="-624.5" font-family="Helvetica,sans-Serif" font-size="10.00"> &lt; math::SincosOp, true &gt;</text>
</g>
<!-- Node29&#45;&gt;Node9 -->
<g id="edge35" class="edge">
<title>Node29&#45;&gt;Node9</title>
<path fill="none" stroke="orange" stroke-dasharray="5,2" d="M754.31,-439.59C776.61,-451.78 806.69,-466.64 835,-475.5 912.69,-499.81 941.81,-470 1016,-503.5 1025.49,-507.79 1024.74,-513.73 1034,-518.5 1042.29,-522.77 1051.35,-526.39 1060.5,-529.43"/>
<polygon fill="orange" stroke="orange" points="756.01,-436.53 745.57,-434.73 752.61,-442.64 756.01,-436.53"/>
<text text-anchor="middle" x="925.5" y="-506.5" font-family="Helvetica,sans-Serif" font-size="10.00"> &lt; gpu::PrintfOp &gt;</text>
</g>
<!-- Node29&#45;&gt;Node13 -->
<g id="edge36" class="edge">
<title>Node29&#45;&gt;Node13</title>
<path fill="none" stroke="orange" stroke-dasharray="5,2" d="M726.3,-444.37C738.97,-489.12 771.85,-583.15 835,-632.5 839.74,-636.2 985.54,-672.37 1071.41,-693.45"/>
<polygon fill="orange" stroke="orange" points="729.65,-443.33 723.64,-434.6 722.89,-445.17 729.65,-443.33"/>
<text text-anchor="middle" x="925.5" y="-681.5" font-family="Helvetica,sans-Serif" font-size="10.00"> &lt; math::ClampFOp &gt;</text>
</g>
<!-- Node29&#45;&gt;Node15 -->
<g id="edge37" class="edge">
<title>Node29&#45;&gt;Node15</title>
<path fill="none" stroke="orange" stroke-dasharray="5,2" d="M788.16,-402.13C803.5,-398.61 819.75,-395.17 835,-392.5 914.77,-378.56 936.68,-387.83 1016,-371.5 1040.61,-366.43 1067.5,-358.56 1089.3,-351.56"/>
<polygon fill="orange" stroke="orange" points="787.18,-398.77 778.24,-404.45 788.77,-405.58 787.18,-398.77"/>
<text text-anchor="middle" x="925.5" y="-395.5" font-family="Helvetica,sans-Serif" font-size="10.00"> &lt; gpu::GPUFuncOp &gt;</text>
</g>
<!-- Node29&#45;&gt;Node17 -->
<g id="edge38" class="edge">
<title>Node29&#45;&gt;Node17</title>
<path fill="none" stroke="orange" stroke-dasharray="5,2" d="M735.91,-396.14C755.81,-368.81 792.47,-324.3 835,-300.5 854.07,-289.82 972.36,-265.49 1054.04,-249.54"/>
<polygon fill="orange" stroke="orange" points="733.01,-394.18 730.05,-404.36 738.71,-398.24 733.01,-394.18"/>
<text text-anchor="middle" x="925.5" y="-303.5" font-family="Helvetica,sans-Serif" font-size="10.00"> &lt; SourceOp, false &gt;</text>
</g>
<!-- Node29&#45;&gt;Node19 -->
<g id="edge39" class="edge">
<title>Node29&#45;&gt;Node19</title>
<path fill="none" stroke="orange" stroke-dasharray="5,2" d="M728.84,-394.81C744.08,-355.97 779.18,-281.18 835,-243.5 869.7,-220.08 975.96,-203.02 1051.68,-193.43"/>
<polygon fill="orange" stroke="orange" points="725.51,-393.71 725.22,-404.3 732.05,-396.2 725.51,-393.71"/>
<text text-anchor="middle" x="925.5" y="-246.5" font-family="Helvetica,sans-Serif" font-size="10.00"> &lt; gpu::ReturnOp &gt;</text>
</g>
<!-- Node29&#45;&gt;Node21 -->
<g id="edge40" class="edge">
<title>Node29&#45;&gt;Node21</title>
<path fill="none" stroke="orange" stroke-dasharray="5,2" d="M741.15,-441.88C762.79,-463.5 798.33,-495.65 835,-514.5 909.02,-552.55 937.02,-536.27 1016,-562.5 1020.08,-563.85 1063.16,-581.22 1095.87,-594.46"/>
<polygon fill="orange" stroke="orange" points="743.61,-439.39 734.1,-434.71 738.62,-444.3 743.61,-439.39"/>
<text text-anchor="middle" x="925.5" y="-565.5" font-family="Helvetica,sans-Serif" font-size="10.00"> &lt; math::SincosOp &gt;</text>
</g>
<!-- Node29&#45;&gt;Node22 -->
<g id="edge41" class="edge">
<title>Node29&#45;&gt;Node22</title>
<path fill="none" stroke="orange" stroke-dasharray="5,2" d="M724.6,-394.47C734.95,-345.7 764.87,-238.08 835,-184.5 868.33,-159.04 975.51,-143.2 1051.76,-134.86"/>
<polygon fill="orange" stroke="orange" points="721.13,-393.98 722.58,-404.47 727.99,-395.36 721.13,-393.98"/>
<text text-anchor="middle" x="925.5" y="-187.5" font-family="Helvetica,sans-Serif" font-size="10.00"> &lt; memref::TransposeOp &gt;</text>
</g>
<!-- Node29&#45;&gt;Node24 -->
<g id="edge42" class="edge">
<title>Node29&#45;&gt;Node24</title>
<path fill="none" stroke="orange" stroke-dasharray="5,2" d="M721.78,-394.25C727.3,-336.58 749.35,-194.82 835,-125.5 865.41,-100.88 961.65,-88.32 1036.63,-82.11"/>
<polygon fill="orange" stroke="orange" points="718.29,-394.05 720.91,-404.31 725.26,-394.66 718.29,-394.05"/>
<text text-anchor="middle" x="925.5" y="-128.5" font-family="Helvetica,sans-Serif" font-size="10.00"> &lt; gpu::DynamicSharedMemoryOp &gt;</text>
</g>
<!-- Node29&#45;&gt;Node26 -->
<g id="edge43" class="edge">
<title>Node29&#45;&gt;Node26</title>
<path fill="none" stroke="orange" stroke-dasharray="5,2" d="M753.04,-399.07C775.48,-385.94 806.19,-369.36 835,-358.5 912.37,-329.34 935.57,-334.68 1016,-315.5 1033.57,-311.31 1052.63,-306.75 1070.16,-302.56"/>
<polygon fill="orange" stroke="orange" points="751.08,-396.16 744.27,-404.28 754.66,-402.18 751.08,-396.16"/>
<text text-anchor="middle" x="925.5" y="-361.5" font-family="Helvetica,sans-Serif" font-size="10.00"> &lt; cf::AssertOp &gt;</text>
</g>
<!-- Node30 -->
<g id="node30" class="node">
<title>Node30</title>
<g id="a_node30"><a xlink:href="classmlir_1_1OneToOneConvertToLLVMPattern.html" target="_top" xlink:title="Generic implementation of one&#45;to&#45;one conversion from &quot;SourceOp&quot; to &quot;TargetOp&quot; where the latter belong...">
<polygon fill="none" stroke="black" points="1034,-429.5 1034,-459.5 1234,-459.5 1234,-429.5 1034,-429.5"/>
<text text-anchor="start" x="1042" y="-447.5" font-family="Helvetica,sans-Serif" font-size="10.00">mlir::OneToOneConvertToLLVMPattern</text>
<text text-anchor="middle" x="1134" y="-436.5" font-family="Helvetica,sans-Serif" font-size="10.00">&lt; SourceOp, TargetOp &gt;</text>
</a>
</g>
</g>
<!-- Node29&#45;&gt;Node30 -->
<g id="edge30" class="edge">
<title>Node29&#45;&gt;Node30</title>
<path fill="none" stroke="midnightblue" d="M827.18,-425.99C890.96,-429.85 971.33,-434.71 1033.67,-438.49"/>
<polygon fill="midnightblue" stroke="midnightblue" points="827.28,-422.49 817.09,-425.38 826.86,-429.48 827.28,-422.49"/>
</g>
<!-- Node31 -->
<g id="node31" class="node">
<title>Node31</title>
<g id="a_node31"><a xlink:href="structmlir_1_1OpToFuncCallLowering.html" target="_top" xlink:title="Rewriting that replaces SourceOp with a CallOp to f32Func or f64Func or f32ApproxFunc or f16Func or i...">
<polygon fill="none" stroke="black" points="1058,-380.5 1058,-410.5 1210,-410.5 1210,-380.5 1058,-380.5"/>
<text text-anchor="start" x="1066" y="-398.5" font-family="Helvetica,sans-Serif" font-size="10.00">mlir::OpToFuncCallLowering</text>
<text text-anchor="middle" x="1134" y="-387.5" font-family="Helvetica,sans-Serif" font-size="10.00">&lt; SourceOp &gt;</text>
</a>
</g>
</g>
<!-- Node29&#45;&gt;Node31 -->
<g id="edge31" class="edge">
<title>Node29&#45;&gt;Node31</title>
<path fill="none" stroke="midnightblue" d="M827.37,-415.41C883.58,-413.01 953.54,-409.64 1016,-405.5 1029.53,-404.6 1043.92,-403.5 1057.82,-402.35"/>
<polygon fill="midnightblue" stroke="midnightblue" points="826.88,-411.92 817.04,-415.84 827.18,-418.92 826.88,-411.92"/>
</g>
<!-- Node32 -->
<g id="node32" class="node">
<title>Node32</title>
<g id="a_node32"><a xlink:href="structmlir_1_1ScalarizeVectorOpLowering.html" target="_top" xlink:title="Unrolls SourceOp to array/vector elements.">
<polygon fill="none" stroke="black" points="1046.5,-478.5 1046.5,-508.5 1221.5,-508.5 1221.5,-478.5 1046.5,-478.5"/>
<text text-anchor="start" x="1054.5" y="-496.5" font-family="Helvetica,sans-Serif" font-size="10.00">mlir::ScalarizeVectorOpLowering</text>
<text text-anchor="middle" x="1134" y="-485.5" font-family="Helvetica,sans-Serif" font-size="10.00">&lt; SourceOp &gt;</text>
</a>
</g>
</g>
<!-- Node29&#45;&gt;Node32 -->
<g id="edge32" class="edge">
<title>Node29&#45;&gt;Node32</title>
<path fill="none" stroke="midnightblue" d="M790.43,-436.91C805.11,-440.29 820.53,-443.66 835,-446.5 905.8,-460.37 986.69,-472.93 1046.31,-481.56"/>
<polygon fill="midnightblue" stroke="midnightblue" points="790.93,-433.43 780.4,-434.57 789.34,-440.25 790.93,-433.43"/>
</g>
</g>
</svg>
