<?xml version="1.0" encoding="UTF-8" standalone="no"?>
<!DOCTYPE svg PUBLIC "-//W3C//DTD SVG 1.1//EN"
 "http://www.w3.org/Graphics/SVG/1.1/DTD/svg11.dtd">
<!-- Generated by graphviz version 2.43.0 (0)
 -->
<!-- Title: AssertOpLowering Pages: 1 -->
<svg width="1336pt" height="116pt"
 viewBox="0.00 0.00 1336.00 115.50" xmlns="http://www.w3.org/2000/svg" xmlns:xlink="http://www.w3.org/1999/xlink">
<g id="graph0" class="graph" transform="scale(1 1) rotate(0) translate(4 111.5)">
<title>AssertOpLowering</title>
<!-- Node1 -->
<g id="node1" class="node">
<title>Node1</title>
<g id="a_node1"><a xlink:title=" ">
<polygon fill="#bfbfbf" stroke="black" points="1223,-33 1223,-52 1328,-52 1328,-33 1223,-33"/>
<text text-anchor="middle" x="1275.5" y="-40" font-family="Helvetica,sans-Serif" font-size="10.00">AssertOpLowering</text>
</a>
</g>
</g>
<!-- Node2 -->
<g id="node2" class="node">
<title>Node2</title>
<g id="a_node2"><a xlink:href="classmlir_1_1ConvertOpToLLVMPattern.html" target="_top" xlink:title=" ">
<polygon fill="none" stroke="black" points="1022,-61.5 1022,-91.5 1186,-91.5 1186,-61.5 1022,-61.5"/>
<text text-anchor="start" x="1030" y="-79.5" font-family="Helvetica,sans-Serif" font-size="10.00">mlir::ConvertOpToLLVMPattern</text>
<text text-anchor="middle" x="1104" y="-68.5" font-family="Helvetica,sans-Serif" font-size="10.00">&lt; cf::AssertOp &gt;</text>
</a>
</g>
</g>
<!-- Node2&#45;&gt;Node1 -->
<g id="edge1" class="edge">
<title>Node2&#45;&gt;Node1</title>
<path fill="none" stroke="midnightblue" d="M1189.98,-59.45C1202.66,-56.91 1215.32,-54.37 1226.85,-52.06"/>
<polygon fill="midnightblue" stroke="midnightblue" points="1188.95,-56.09 1179.84,-61.49 1190.33,-62.95 1188.95,-56.09"/>
</g>
<!-- Node3 -->
<g id="node3" class="node">
<title>Node3</title>
<g id="a_node3"><a xlink:href="classmlir_1_1ConvertToLLVMPattern.html" target="_top" xlink:title="Base class for operation conversions targeting the LLVM IR dialect.">
<polygon fill="none" stroke="black" points="433,-88 433,-107 584,-107 584,-88 433,-88"/>
<text text-anchor="middle" x="508.5" y="-95" font-family="Helvetica,sans-Serif" font-size="10.00">mlir::ConvertToLLVMPattern</text>
</a>
</g>
</g>
<!-- Node3&#45;&gt;Node2 -->
<g id="edge2" class="edge">
<title>Node3&#45;&gt;Node2</title>
<path fill="none" stroke="midnightblue" d="M594.31,-101.31C596.9,-101.38 599.47,-101.45 602,-101.5 780.68,-105.36 826.64,-113.53 1004,-91.5 1009.78,-90.78 1015.74,-90 1021.74,-89.17"/>
<polygon fill="midnightblue" stroke="midnightblue" points="594.31,-97.81 584.21,-101.01 594.1,-104.81 594.31,-97.81"/>
</g>
<!-- Node7 -->
<g id="node7" class="node">
<title>Node7</title>
<g id="a_node7"><a xlink:href="classmlir_1_1ConvertOpToLLVMPattern.html" target="_top" xlink:title="Utility class for operation conversions targeting the LLVM dialect that match exactly one source oper...">
<polygon fill="none" stroke="black" points="705,-61.5 705,-91.5 901,-91.5 901,-61.5 705,-61.5"/>
<text text-anchor="start" x="713" y="-79.5" font-family="Helvetica,sans-Serif" font-size="10.00">mlir::ConvertOpToLLVMPattern</text>
<text text-anchor="middle" x="803" y="-68.5" font-family="Helvetica,sans-Serif" font-size="10.00">&lt; SourceOp, FailOnUnsupportedFP &gt;</text>
</a>
</g>
</g>
<!-- Node3&#45;&gt;Node7 -->
<g id="edge7" class="edge">
<title>Node3&#45;&gt;Node7</title>
<path fill="none" stroke="midnightblue" d="M594.15,-91.42C628.79,-88.94 669.08,-86.04 704.9,-83.47"/>
<polygon fill="midnightblue" stroke="midnightblue" points="593.79,-87.94 584.07,-92.15 594.29,-94.92 593.79,-87.94"/>
</g>
<!-- Node4 -->
<g id="node4" class="node">
<title>Node4</title>
<g id="a_node4"><a xlink:href="classmlir_1_1ConversionPattern.html" target="_top" xlink:title="Base class for the conversion patterns.">
<polygon fill="none" stroke="black" points="265,-50 265,-69 396,-69 396,-50 265,-50"/>
<text text-anchor="middle" x="330.5" y="-57" font-family="Helvetica,sans-Serif" font-size="10.00">mlir::ConversionPattern</text>
</a>
</g>
</g>
<!-- Node4&#45;&gt;Node3 -->
<g id="edge3" class="edge">
<title>Node4&#45;&gt;Node3</title>
<path fill="none" stroke="midnightblue" d="M385.93,-71.25C410.82,-76.63 439.92,-82.91 463.41,-87.98"/>
<polygon fill="midnightblue" stroke="midnightblue" points="386.43,-67.78 375.91,-69.09 384.95,-74.62 386.43,-67.78"/>
</g>
<!-- Node8 -->
<g id="node8" class="node">
<title>Node8</title>
<g id="a_node8"><a xlink:href="classmlir_1_1OpConversionPattern.html" target="_top" xlink:title=" ">
<polygon fill="none" stroke="black" points="730.5,-12.5 730.5,-42.5 875.5,-42.5 875.5,-12.5 730.5,-12.5"/>
<text text-anchor="start" x="738.5" y="-30.5" font-family="Helvetica,sans-Serif" font-size="10.00">mlir::OpConversionPattern</text>
<text text-anchor="middle" x="803" y="-19.5" font-family="Helvetica,sans-Serif" font-size="10.00">&lt; cf::AssertOp &gt;</text>
</a>
</g>
</g>
<!-- Node4&#45;&gt;Node8 -->
<g id="edge9" class="edge">
<title>Node4&#45;&gt;Node8</title>
<path fill="none" stroke="midnightblue" d="M406.42,-55.87C478.4,-52.19 590.2,-45.99 687,-38.5 701,-37.42 715.94,-36.1 730.26,-34.77"/>
<polygon fill="midnightblue" stroke="midnightblue" points="405.9,-52.39 396.09,-56.39 406.26,-59.38 405.9,-52.39"/>
</g>
<!-- Node9 -->
<g id="node9" class="node">
<title>Node9</title>
<g id="a_node9"><a xlink:href="classmlir_1_1OpConversionPattern.html" target="_top" xlink:title="OpConversionPattern is a wrapper around ConversionPattern that allows for matching and rewriting agai...">
<polygon fill="none" stroke="black" points="436,-0.5 436,-30.5 581,-30.5 581,-0.5 436,-0.5"/>
<text text-anchor="start" x="444" y="-18.5" font-family="Helvetica,sans-Serif" font-size="10.00">mlir::OpConversionPattern</text>
<text text-anchor="middle" x="508.5" y="-7.5" font-family="Helvetica,sans-Serif" font-size="10.00">&lt; SourceOp &gt;</text>
</a>
</g>
</g>
<!-- Node4&#45;&gt;Node9 -->
<g id="edge11" class="edge">
<title>Node4&#45;&gt;Node9</title>
<path fill="none" stroke="midnightblue" d="M379.6,-47.47C400.48,-42.25 425.16,-36.09 447.24,-30.57"/>
<polygon fill="midnightblue" stroke="midnightblue" points="378.54,-44.13 369.69,-49.95 380.24,-50.92 378.54,-44.13"/>
</g>
<!-- Node5 -->
<g id="node5" class="node">
<title>Node5</title>
<g id="a_node5"><a xlink:href="classmlir_1_1RewritePattern.html" target="_top" xlink:title="RewritePattern is the common base class for all DAG to DAG replacements.">
<polygon fill="none" stroke="black" points="114,-50 114,-69 228,-69 228,-50 114,-50"/>
<text text-anchor="middle" x="171" y="-57" font-family="Helvetica,sans-Serif" font-size="10.00">mlir::RewritePattern</text>
</a>
</g>
</g>
<!-- Node5&#45;&gt;Node4 -->
<g id="edge4" class="edge">
<title>Node5&#45;&gt;Node4</title>
<path fill="none" stroke="midnightblue" d="M238.54,-59.5C247.27,-59.5 256.21,-59.5 264.9,-59.5"/>
<polygon fill="midnightblue" stroke="midnightblue" points="238.42,-56 228.42,-59.5 238.42,-63 238.42,-56"/>
</g>
<!-- Node6 -->
<g id="node6" class="node">
<title>Node6</title>
<g id="a_node6"><a xlink:href="classmlir_1_1Pattern.html" target="_top" xlink:title="This class contains all of the data related to a pattern, but does not contain any methods or logic f...">
<polygon fill="none" stroke="black" points="0,-50 0,-69 77,-69 77,-50 0,-50"/>
<text text-anchor="middle" x="38.5" y="-57" font-family="Helvetica,sans-Serif" font-size="10.00">mlir::Pattern</text>
</a>
</g>
</g>
<!-- Node6&#45;&gt;Node5 -->
<g id="edge5" class="edge">
<title>Node6&#45;&gt;Node5</title>
<path fill="none" stroke="midnightblue" d="M87.47,-59.5C96.06,-59.5 105.09,-59.5 113.89,-59.5"/>
<polygon fill="midnightblue" stroke="midnightblue" points="87.25,-56 77.25,-59.5 87.25,-63 87.25,-56"/>
</g>
<!-- Node7&#45;&gt;Node2 -->
<g id="edge6" class="edge">
<title>Node7&#45;&gt;Node2</title>
<path fill="none" stroke="orange" stroke-dasharray="5,2" d="M911.26,-76.5C947.72,-76.5 987.84,-76.5 1021.92,-76.5"/>
<polygon fill="orange" stroke="orange" points="911.08,-73 901.08,-76.5 911.08,-80 911.08,-73"/>
<text text-anchor="middle" x="961.5" y="-79.5" font-family="Helvetica,sans-Serif" font-size="10.00"> &lt; cf::AssertOp &gt;</text>
</g>
<!-- Node8&#45;&gt;Node1 -->
<g id="edge8" class="edge">
<title>Node8&#45;&gt;Node1</title>
<path fill="none" stroke="midnightblue" d="M885.77,-30.11C982.74,-33.2 1141.44,-38.26 1222.82,-40.85"/>
<polygon fill="midnightblue" stroke="midnightblue" points="885.82,-26.61 875.71,-29.79 885.6,-33.6 885.82,-26.61"/>
</g>
<!-- Node9&#45;&gt;Node8 -->
<g id="edge10" class="edge">
<title>Node9&#45;&gt;Node8</title>
<path fill="none" stroke="orange" stroke-dasharray="5,2" d="M591.09,-18.85C634.86,-20.64 688.29,-22.84 730.43,-24.56"/>
<polygon fill="orange" stroke="orange" points="591.19,-15.35 581.05,-18.44 590.9,-22.34 591.19,-15.35"/>
<text text-anchor="middle" x="644.5" y="-26.5" font-family="Helvetica,sans-Serif" font-size="10.00"> &lt; cf::AssertOp &gt;</text>
</g>
</g>
</svg>
