<?xml version="1.0" encoding="UTF-8" standalone="no"?>
<!DOCTYPE svg PUBLIC "-//W3C//DTD SVG 1.1//EN"
 "http://www.w3.org/Graphics/SVG/1.1/DTD/svg11.dtd">
<!-- Generated by graphviz version 2.43.0 (0)
 -->
<!-- Title: mlir::detail::DialectInterfaceCollectionBase Pages: 1 -->
<svg width="963pt" height="309pt"
 viewBox="0.00 0.00 963.00 309.00" xmlns="http://www.w3.org/2000/svg" xmlns:xlink="http://www.w3.org/1999/xlink">
<g id="graph0" class="graph" transform="scale(1 1) rotate(0) translate(4 305)">
<title>mlir::detail::DialectInterfaceCollectionBase</title>
<!-- Node1 -->
<g id="node1" class="node">
<title>Node1</title>
<g id="a_node1"><a xlink:title="This class is the base class for a collection of instances for a specific interface kind.">
<polygon fill="#bfbfbf" stroke="black" points="0,-113.5 0,-143.5 154,-143.5 154,-113.5 0,-113.5"/>
<text text-anchor="start" x="8" y="-131.5" font-family="Helvetica,sans-Serif" font-size="10.00">mlir::detail::DialectInterface</text>
<text text-anchor="middle" x="77" y="-120.5" font-family="Helvetica,sans-Serif" font-size="10.00">CollectionBase</text>
</a>
</g>
</g>
<!-- Node2 -->
<g id="node2" class="node">
<title>Node2</title>
<g id="a_node2"><a xlink:href="classmlir_1_1DialectInterfaceCollection.html" target="_top" xlink:title=" ">
<polygon fill="none" stroke="black" points="571.5,-191.5 571.5,-221.5 740.5,-221.5 740.5,-191.5 571.5,-191.5"/>
<text text-anchor="start" x="579.5" y="-209.5" font-family="Helvetica,sans-Serif" font-size="10.00">mlir::DialectInterfaceCollection</text>
<text text-anchor="middle" x="656" y="-198.5" font-family="Helvetica,sans-Serif" font-size="10.00">&lt; OpAsmDialectInterface &gt;</text>
</a>
</g>
</g>
<!-- Node1&#45;&gt;Node2 -->
<g id="edge1" class="edge">
<title>Node1&#45;&gt;Node2</title>
<path fill="none" stroke="midnightblue" d="M112.6,-148.52C166.95,-178.65 276.62,-234.17 378,-253.5 448.73,-266.99 469.35,-267.38 540,-253.5 570.9,-247.43 603.96,-233 626.66,-221.71"/>
<polygon fill="midnightblue" stroke="midnightblue" points="114.17,-145.39 103.74,-143.56 110.75,-151.5 114.17,-145.39"/>
</g>
<!-- Node3 -->
<g id="node3" class="node">
<title>Node3</title>
<g id="a_node3"><a xlink:href="classmlir_1_1DialectInterfaceCollection.html" target="_top" xlink:title=" ">
<polygon fill="none" stroke="black" points="558,-270.5 558,-300.5 754,-300.5 754,-270.5 558,-270.5"/>
<text text-anchor="start" x="566" y="-288.5" font-family="Helvetica,sans-Serif" font-size="10.00">mlir::DialectInterfaceCollection</text>
<text text-anchor="middle" x="656" y="-277.5" font-family="Helvetica,sans-Serif" font-size="10.00">&lt; LLVMTranslationDialectInterface &gt;</text>
</a>
</g>
</g>
<!-- Node1&#45;&gt;Node3 -->
<g id="edge2" class="edge">
<title>Node1&#45;&gt;Node3</title>
<path fill="none" stroke="midnightblue" d="M96.36,-151.49C116.84,-175.52 152.23,-212.45 191,-232.5 306.59,-292.28 459.62,-297.94 557.72,-293.84"/>
<polygon fill="midnightblue" stroke="midnightblue" points="98.85,-149.01 89.75,-143.58 93.47,-153.5 98.85,-149.01"/>
</g>
<!-- Node5 -->
<g id="node5" class="node">
<title>Node5</title>
<g id="a_node5"><a xlink:href="classmlir_1_1DialectInterfaceCollection.html" target="_top" xlink:title=" ">
<polygon fill="none" stroke="black" points="571.5,-74.5 571.5,-104.5 740.5,-104.5 740.5,-74.5 571.5,-74.5"/>
<text text-anchor="start" x="579.5" y="-92.5" font-family="Helvetica,sans-Serif" font-size="10.00">mlir::DialectInterfaceCollection</text>
<text text-anchor="middle" x="656" y="-81.5" font-family="Helvetica,sans-Serif" font-size="10.00">&lt; DialectFoldInterface &gt;</text>
</a>
</g>
</g>
<!-- Node1&#45;&gt;Node5 -->
<g id="edge4" class="edge">
<title>Node1&#45;&gt;Node5</title>
<path fill="none" stroke="midnightblue" d="M125.5,-110.02C209.21,-79.79 388.49,-25.51 540,-50.5 567.77,-55.08 597.85,-65.49 620.28,-74.4"/>
<polygon fill="midnightblue" stroke="midnightblue" points="124.2,-106.77 116.01,-113.49 126.61,-113.34 124.2,-106.77"/>
</g>
<!-- Node6 -->
<g id="node6" class="node">
<title>Node6</title>
<g id="a_node6"><a xlink:href="classmlir_1_1DialectInterfaceCollection.html" target="_top" xlink:title=" ">
<polygon fill="none" stroke="black" points="568.5,-0.5 568.5,-30.5 743.5,-30.5 743.5,-0.5 568.5,-0.5"/>
<text text-anchor="start" x="576.5" y="-18.5" font-family="Helvetica,sans-Serif" font-size="10.00">mlir::DialectInterfaceCollection</text>
<text text-anchor="middle" x="656" y="-7.5" font-family="Helvetica,sans-Serif" font-size="10.00">&lt; LLVMImportDialectInterface &gt;</text>
</a>
</g>
</g>
<!-- Node1&#45;&gt;Node6 -->
<g id="edge5" class="edge">
<title>Node1&#45;&gt;Node6</title>
<path fill="none" stroke="midnightblue" d="M100.74,-106.27C122.11,-86.94 155.96,-60.11 191,-47.5 316.36,-2.39 472.88,-2.14 568.31,-7.66"/>
<polygon fill="midnightblue" stroke="midnightblue" points="98.15,-103.91 93.19,-113.27 102.91,-109.04 98.15,-103.91"/>
</g>
<!-- Node8 -->
<g id="node8" class="node">
<title>Node8</title>
<g id="a_node8"><a xlink:href="classmlir_1_1DialectInterfaceCollection.html" target="_top" xlink:title=" ">
<polygon fill="none" stroke="black" points="571.5,-136.5 571.5,-166.5 740.5,-166.5 740.5,-136.5 571.5,-136.5"/>
<text text-anchor="start" x="579.5" y="-154.5" font-family="Helvetica,sans-Serif" font-size="10.00">mlir::DialectInterfaceCollection</text>
<text text-anchor="middle" x="656" y="-143.5" font-family="Helvetica,sans-Serif" font-size="10.00">&lt; DialectInlinerInterface &gt;</text>
</a>
</g>
</g>
<!-- Node1&#45;&gt;Node8 -->
<g id="edge7" class="edge">
<title>Node1&#45;&gt;Node8</title>
<path fill="none" stroke="midnightblue" d="M164.26,-113.96C257.62,-100.78 410.53,-86.6 540,-109.5 555.28,-112.2 590.53,-125.48 618.01,-136.4"/>
<polygon fill="midnightblue" stroke="midnightblue" points="163.69,-110.51 154.29,-115.4 164.69,-117.44 163.69,-110.51"/>
</g>
<!-- Node10 -->
<g id="node10" class="node">
<title>Node10</title>
<g id="a_node10"><a xlink:href="classmlir_1_1DialectInterfaceCollection.html" target="_top" xlink:title="A collection of dialect interfaces within a context, for a given concrete interface type.">
<polygon fill="none" stroke="black" points="191,-139.5 191,-169.5 360,-169.5 360,-139.5 191,-139.5"/>
<text text-anchor="start" x="199" y="-157.5" font-family="Helvetica,sans-Serif" font-size="10.00">mlir::DialectInterfaceCollection</text>
<text text-anchor="middle" x="275.5" y="-146.5" font-family="Helvetica,sans-Serif" font-size="10.00">&lt; InterfaceType &gt;</text>
</a>
</g>
</g>
<!-- Node1&#45;&gt;Node10 -->
<g id="edge9" class="edge">
<title>Node1&#45;&gt;Node10</title>
<path fill="none" stroke="midnightblue" d="M164.45,-139.94C173.2,-141.1 182.07,-142.27 190.79,-143.42"/>
<polygon fill="midnightblue" stroke="midnightblue" points="164.63,-136.43 154.25,-138.59 163.71,-143.37 164.63,-136.43"/>
</g>
<!-- Node4 -->
<g id="node4" class="node">
<title>Node4</title>
<g id="a_node4"><a xlink:href="classmlir_1_1LLVMTranslationInterface.html" target="_top" xlink:title="Interface collection for translation to LLVM IR, dispatches to a concrete interface implementation ba...">
<polygon fill="none" stroke="black" points="791,-276 791,-295 955,-295 955,-276 791,-276"/>
<text text-anchor="middle" x="873" y="-283" font-family="Helvetica,sans-Serif" font-size="10.00">mlir::LLVMTranslationInterface</text>
</a>
</g>
</g>
<!-- Node3&#45;&gt;Node4 -->
<g id="edge3" class="edge">
<title>Node3&#45;&gt;Node4</title>
<path fill="none" stroke="midnightblue" d="M764.19,-285.5C773.12,-285.5 782.06,-285.5 790.75,-285.5"/>
<polygon fill="midnightblue" stroke="midnightblue" points="764.12,-282 754.12,-285.5 764.12,-289 764.12,-282"/>
</g>
<!-- Node7 -->
<g id="node7" class="node">
<title>Node7</title>
<g id="a_node7"><a xlink:href="classmlir_1_1LLVMImportInterface.html" target="_top" xlink:title="Interface collection for the import of LLVM IR that dispatches to a concrete dialect interface implem...">
<polygon fill="none" stroke="black" points="801.5,-6 801.5,-25 944.5,-25 944.5,-6 801.5,-6"/>
<text text-anchor="middle" x="873" y="-13" font-family="Helvetica,sans-Serif" font-size="10.00">mlir::LLVMImportInterface</text>
</a>
</g>
</g>
<!-- Node6&#45;&gt;Node7 -->
<g id="edge6" class="edge">
<title>Node6&#45;&gt;Node7</title>
<path fill="none" stroke="midnightblue" d="M753.97,-15.5C769.97,-15.5 786.29,-15.5 801.48,-15.5"/>
<polygon fill="midnightblue" stroke="midnightblue" points="753.52,-12 743.52,-15.5 753.52,-19 753.52,-12"/>
</g>
<!-- Node9 -->
<g id="node9" class="node">
<title>Node9</title>
<g id="a_node9"><a xlink:href="classmlir_1_1InlinerInterface.html" target="_top" xlink:title="This interface provides the hooks into the inlining interface.">
<polygon fill="none" stroke="black" points="815,-142 815,-161 931,-161 931,-142 815,-142"/>
<text text-anchor="middle" x="873" y="-149" font-family="Helvetica,sans-Serif" font-size="10.00">mlir::InlinerInterface</text>
</a>
</g>
</g>
<!-- Node8&#45;&gt;Node9 -->
<g id="edge8" class="edge">
<title>Node8&#45;&gt;Node9</title>
<path fill="none" stroke="midnightblue" d="M750.98,-151.5C772.68,-151.5 795.13,-151.5 814.71,-151.5"/>
<polygon fill="midnightblue" stroke="midnightblue" points="750.74,-148 740.74,-151.5 750.74,-155 750.74,-148"/>
</g>
<!-- Node10&#45;&gt;Node2 -->
<g id="edge10" class="edge">
<title>Node10&#45;&gt;Node2</title>
<path fill="none" stroke="orange" stroke-dasharray="5,2" d="M370.27,-167.44C372.88,-167.79 375.46,-168.15 378,-168.5 442.92,-177.43 516.4,-187.51 571.36,-195.04"/>
<polygon fill="orange" stroke="orange" points="370.52,-163.94 360.14,-166.04 369.57,-170.87 370.52,-163.94"/>
<text text-anchor="middle" x="459" y="-192.5" font-family="Helvetica,sans-Serif" font-size="10.00"> &lt; OpAsmDialectInterface &gt;</text>
</g>
<!-- Node10&#45;&gt;Node3 -->
<g id="edge11" class="edge">
<title>Node10&#45;&gt;Node3</title>
<path fill="none" stroke="orange" stroke-dasharray="5,2" d="M312.85,-174.32C331.89,-184.21 355.82,-195.87 378,-204.5 449.91,-232.48 535.54,-256.11 592.37,-270.5"/>
<polygon fill="orange" stroke="orange" points="314.4,-171.18 303.92,-169.62 311.14,-177.37 314.4,-171.18"/>
<text text-anchor="start" x="395" y="-268.5" font-family="Helvetica,sans-Serif" font-size="10.00"> &lt; LLVMTranslationDialect</text>
<text text-anchor="middle" x="459" y="-257.5" font-family="Helvetica,sans-Serif" font-size="10.00">Interface &gt;</text>
</g>
<!-- Node10&#45;&gt;Node5 -->
<g id="edge12" class="edge">
<title>Node10&#45;&gt;Node5</title>
<path fill="none" stroke="orange" stroke-dasharray="5,2" d="M369.99,-137.89C372.69,-137.42 375.36,-136.96 378,-136.5 442.88,-125.24 516.36,-112.79 571.33,-103.53"/>
<polygon fill="orange" stroke="orange" points="369.38,-134.45 360.13,-139.62 370.58,-141.34 369.38,-134.45"/>
<text text-anchor="middle" x="459" y="-139.5" font-family="Helvetica,sans-Serif" font-size="10.00"> &lt; DialectFoldInterface &gt;</text>
</g>
<!-- Node10&#45;&gt;Node6 -->
<g id="edge13" class="edge">
<title>Node10&#45;&gt;Node6</title>
<path fill="none" stroke="orange" stroke-dasharray="5,2" d="M307.16,-134.02C326.78,-121.59 353.13,-106.13 378,-95.5 446.35,-66.29 528.61,-44.05 585.65,-30.52"/>
<polygon fill="orange" stroke="orange" points="305.17,-131.13 298.64,-139.48 308.95,-137.02 305.17,-131.13"/>
<text text-anchor="middle" x="459" y="-98.5" font-family="Helvetica,sans-Serif" font-size="10.00"> &lt; LLVMImportDialectInterface &gt;</text>
</g>
<!-- Node10&#45;&gt;Node8 -->
<g id="edge14" class="edge">
<title>Node10&#45;&gt;Node8</title>
<path fill="none" stroke="orange" stroke-dasharray="5,2" d="M370.15,-153.76C431.81,-153.27 511.83,-152.63 571.35,-152.16"/>
<polygon fill="orange" stroke="orange" points="370,-150.26 360.03,-153.84 370.06,-157.26 370,-150.26"/>
<text text-anchor="middle" x="459" y="-156.5" font-family="Helvetica,sans-Serif" font-size="10.00"> &lt; DialectInlinerInterface &gt;</text>
</g>
</g>
</svg>
