<?xml version="1.0" encoding="UTF-8" standalone="no"?>
<!DOCTYPE svg PUBLIC "-//W3C//DTD SVG 1.1//EN"
 "http://www.w3.org/Graphics/SVG/1.1/DTD/svg11.dtd">
<!-- Generated by graphviz version 2.43.0 (0)
 -->
<!-- Title: mlir::dataflow::Lattice&lt; ValueT &gt; Pages: 1 -->
<svg width="981pt" height="137pt"
 viewBox="0.00 0.00 981.00 137.00" xmlns="http://www.w3.org/2000/svg" xmlns:xlink="http://www.w3.org/1999/xlink">
<g id="graph0" class="graph" transform="scale(1 1) rotate(0) translate(4 133)">
<title>mlir::dataflow::Lattice&lt; ValueT &gt;</title>
<!-- Node1 -->
<g id="node1" class="node">
<title>Node1</title>
<g id="a_node1"><a xlink:title="This class represents a lattice holding a specific value of type ValueT.">
<polygon fill="#bfbfbf" stroke="black" points="313,-49.5 313,-79.5 435,-79.5 435,-49.5 313,-49.5"/>
<text text-anchor="start" x="321" y="-67.5" font-family="Helvetica,sans-Serif" font-size="10.00">mlir::dataflow::Lattice</text>
<text text-anchor="middle" x="374" y="-56.5" font-family="Helvetica,sans-Serif" font-size="10.00">&lt; ValueT &gt;</text>
</a>
</g>
</g>
<!-- Node4 -->
<g id="node4" class="node">
<title>Node4</title>
<g id="a_node4"><a xlink:href="classmlir_1_1dataflow_1_1Lattice.html" target="_top" xlink:title=" ">
<polygon fill="none" stroke="black" points="609,-98.5 609,-128.5 760,-128.5 760,-98.5 609,-98.5"/>
<text text-anchor="start" x="617" y="-116.5" font-family="Helvetica,sans-Serif" font-size="10.00">mlir::dataflow::Lattice</text>
<text text-anchor="middle" x="684.5" y="-105.5" font-family="Helvetica,sans-Serif" font-size="10.00">&lt; StridedMetadataRange &gt;</text>
</a>
</g>
</g>
<!-- Node1&#45;&gt;Node4 -->
<g id="edge3" class="edge">
<title>Node1&#45;&gt;Node4</title>
<path fill="none" stroke="orange" stroke-dasharray="5,2" d="M445.4,-78.18C447.96,-78.64 450.5,-79.08 453,-79.5 504.94,-88.32 563.7,-96.97 608.89,-103.33"/>
<polygon fill="orange" stroke="orange" points="445.88,-74.71 435.42,-76.39 444.64,-81.6 445.88,-74.71"/>
<text text-anchor="middle" x="522" y="-103.5" font-family="Helvetica,sans-Serif" font-size="10.00"> &lt; StridedMetadataRange &gt;</text>
</g>
<!-- Node6 -->
<g id="node6" class="node">
<title>Node6</title>
<g id="a_node6"><a xlink:href="classmlir_1_1dataflow_1_1Lattice.html" target="_top" xlink:title=" ">
<polygon fill="none" stroke="black" points="621.5,-49.5 621.5,-79.5 747.5,-79.5 747.5,-49.5 621.5,-49.5"/>
<text text-anchor="start" x="629.5" y="-67.5" font-family="Helvetica,sans-Serif" font-size="10.00">mlir::dataflow::Lattice</text>
<text text-anchor="middle" x="684.5" y="-56.5" font-family="Helvetica,sans-Serif" font-size="10.00">&lt; IntegerDivisibility &gt;</text>
</a>
</g>
</g>
<!-- Node1&#45;&gt;Node6 -->
<g id="edge5" class="edge">
<title>Node1&#45;&gt;Node6</title>
<path fill="none" stroke="orange" stroke-dasharray="5,2" d="M445.22,-64.5C498.25,-64.5 570.36,-64.5 621.32,-64.5"/>
<polygon fill="orange" stroke="orange" points="445.21,-61 435.21,-64.5 445.21,-68 445.21,-61"/>
<text text-anchor="middle" x="522" y="-67.5" font-family="Helvetica,sans-Serif" font-size="10.00"> &lt; IntegerDivisibility &gt;</text>
</g>
<!-- Node8 -->
<g id="node8" class="node">
<title>Node8</title>
<g id="a_node8"><a xlink:href="classmlir_1_1dataflow_1_1Lattice.html" target="_top" xlink:title=" ">
<polygon fill="none" stroke="black" points="619,-0.5 619,-30.5 750,-30.5 750,-0.5 619,-0.5"/>
<text text-anchor="start" x="627" y="-18.5" font-family="Helvetica,sans-Serif" font-size="10.00">mlir::dataflow::Lattice</text>
<text text-anchor="middle" x="684.5" y="-7.5" font-family="Helvetica,sans-Serif" font-size="10.00">&lt; IntegerValueRange &gt;</text>
</a>
</g>
</g>
<!-- Node1&#45;&gt;Node8 -->
<g id="edge7" class="edge">
<title>Node1&#45;&gt;Node8</title>
<path fill="none" stroke="orange" stroke-dasharray="5,2" d="M445.4,-50.82C447.96,-50.36 450.5,-49.92 453,-49.5 508.83,-40.02 572.53,-30.74 618.8,-24.28"/>
<polygon fill="orange" stroke="orange" points="444.64,-47.4 435.42,-52.61 445.88,-54.29 444.64,-47.4"/>
<text text-anchor="middle" x="522" y="-52.5" font-family="Helvetica,sans-Serif" font-size="10.00"> &lt; IntegerValueRange &gt;</text>
</g>
<!-- Node2 -->
<g id="node2" class="node">
<title>Node2</title>
<g id="a_node2"><a xlink:href="classmlir_1_1dataflow_1_1AbstractSparseLattice.html" target="_top" xlink:title="This class represents an abstract lattice.">
<polygon fill="none" stroke="black" points="146,-49.5 146,-79.5 276,-79.5 276,-49.5 146,-49.5"/>
<text text-anchor="start" x="154" y="-67.5" font-family="Helvetica,sans-Serif" font-size="10.00">mlir::dataflow::Abstract</text>
<text text-anchor="middle" x="211" y="-56.5" font-family="Helvetica,sans-Serif" font-size="10.00">SparseLattice</text>
</a>
</g>
</g>
<!-- Node2&#45;&gt;Node1 -->
<g id="edge1" class="edge">
<title>Node2&#45;&gt;Node1</title>
<path fill="none" stroke="midnightblue" d="M286.11,-64.5C295.05,-64.5 304.09,-64.5 312.79,-64.5"/>
<polygon fill="midnightblue" stroke="midnightblue" points="286.09,-61 276.09,-64.5 286.09,-68 286.09,-61"/>
</g>
<!-- Node3 -->
<g id="node3" class="node">
<title>Node3</title>
<g id="a_node3"><a xlink:href="classmlir_1_1AnalysisState.html" target="_top" xlink:title="Base class for generic analysis states.">
<polygon fill="none" stroke="black" points="0,-55 0,-74 109,-74 109,-55 0,-55"/>
<text text-anchor="middle" x="54.5" y="-62" font-family="Helvetica,sans-Serif" font-size="10.00">mlir::AnalysisState</text>
</a>
</g>
</g>
<!-- Node3&#45;&gt;Node2 -->
<g id="edge2" class="edge">
<title>Node3&#45;&gt;Node2</title>
<path fill="none" stroke="midnightblue" d="M119.27,-64.5C128.05,-64.5 137.07,-64.5 145.86,-64.5"/>
<polygon fill="midnightblue" stroke="midnightblue" points="119.1,-61 109.1,-64.5 119.1,-68 119.1,-61"/>
</g>
<!-- Node5 -->
<g id="node5" class="node">
<title>Node5</title>
<g id="a_node5"><a xlink:href="classmlir_1_1dataflow_1_1StridedMetadataRangeLattice.html" target="_top" xlink:title="This lattice element represents the strided metadata of an SSA value.">
<polygon fill="none" stroke="black" points="800,-98.5 800,-128.5 970,-128.5 970,-98.5 800,-98.5"/>
<text text-anchor="start" x="808" y="-116.5" font-family="Helvetica,sans-Serif" font-size="10.00">mlir::dataflow::StridedMetadata</text>
<text text-anchor="middle" x="885" y="-105.5" font-family="Helvetica,sans-Serif" font-size="10.00">RangeLattice</text>
</a>
</g>
</g>
<!-- Node4&#45;&gt;Node5 -->
<g id="edge4" class="edge">
<title>Node4&#45;&gt;Node5</title>
<path fill="none" stroke="midnightblue" d="M770.39,-113.5C780.2,-113.5 790.19,-113.5 799.99,-113.5"/>
<polygon fill="midnightblue" stroke="midnightblue" points="770.26,-110 760.26,-113.5 770.26,-117 770.26,-110"/>
</g>
<!-- Node7 -->
<g id="node7" class="node">
<title>Node7</title>
<g id="a_node7"><a xlink:href="classmlir_1_1dataflow_1_1IntegerDivisibilityLattice.html" target="_top" xlink:title="This lattice element represents the integer divisibility of an SSA value.">
<polygon fill="none" stroke="black" points="797,-49.5 797,-79.5 973,-79.5 973,-49.5 797,-49.5"/>
<text text-anchor="start" x="805" y="-67.5" font-family="Helvetica,sans-Serif" font-size="10.00">mlir::dataflow::IntegerDivisibility</text>
<text text-anchor="middle" x="885" y="-56.5" font-family="Helvetica,sans-Serif" font-size="10.00">Lattice</text>
</a>
</g>
</g>
<!-- Node6&#45;&gt;Node7 -->
<g id="edge6" class="edge">
<title>Node6&#45;&gt;Node7</title>
<path fill="none" stroke="midnightblue" d="M757.79,-64.5C770.49,-64.5 783.82,-64.5 796.87,-64.5"/>
<polygon fill="midnightblue" stroke="midnightblue" points="757.76,-61 747.76,-64.5 757.76,-68 757.76,-61"/>
</g>
<!-- Node9 -->
<g id="node9" class="node">
<title>Node9</title>
<g id="a_node9"><a xlink:href="classmlir_1_1dataflow_1_1IntegerValueRangeLattice.html" target="_top" xlink:title="This lattice element represents the integer value range of an SSA value.">
<polygon fill="none" stroke="black" points="809.5,-0.5 809.5,-30.5 960.5,-30.5 960.5,-0.5 809.5,-0.5"/>
<text text-anchor="start" x="817.5" y="-18.5" font-family="Helvetica,sans-Serif" font-size="10.00">mlir::dataflow::IntegerValue</text>
<text text-anchor="middle" x="885" y="-7.5" font-family="Helvetica,sans-Serif" font-size="10.00">RangeLattice</text>
</a>
</g>
</g>
<!-- Node8&#45;&gt;Node9 -->
<g id="edge8" class="edge">
<title>Node8&#45;&gt;Node9</title>
<path fill="none" stroke="midnightblue" d="M760.57,-15.5C776.55,-15.5 793.41,-15.5 809.37,-15.5"/>
<polygon fill="midnightblue" stroke="midnightblue" points="760.22,-12 750.22,-15.5 760.22,-19 760.22,-12"/>
</g>
</g>
</svg>
