<?xml version="1.0" encoding="UTF-8" standalone="no"?>
<!DOCTYPE svg PUBLIC "-//W3C//DTD SVG 1.1//EN"
 "http://www.w3.org/Graphics/SVG/1.1/DTD/svg11.dtd">
<!-- Generated by graphviz version 2.43.0 (0)
 -->
<!-- Title: mlir::remark::detail::RemarkEmittingPolicyBase Pages: 1 -->
<svg width="352pt" height="106pt"
 viewBox="0.00 0.00 352.00 106.00" xmlns="http://www.w3.org/2000/svg" xmlns:xlink="http://www.w3.org/1999/xlink">
<g id="graph0" class="graph" transform="scale(1 1) rotate(0) translate(4 102)">
<title>mlir::remark::detail::RemarkEmittingPolicyBase</title>
<!-- Node1 -->
<g id="node1" class="node">
<title>Node1</title>
<g id="a_node1"><a xlink:title="Base class for MLIR remark emitting policies that is used to emit optimization remarks to the underly...">
<polygon fill="#bfbfbf" stroke="black" points="94,-67.5 94,-97.5 249,-97.5 249,-67.5 94,-67.5"/>
<text text-anchor="start" x="102" y="-85.5" font-family="Helvetica,sans-Serif" font-size="10.00">mlir::remark::detail</text>
<text text-anchor="middle" x="171.5" y="-74.5" font-family="Helvetica,sans-Serif" font-size="10.00">::RemarkEmittingPolicyBase</text>
</a>
</g>
</g>
<!-- Node2 -->
<g id="node2" class="node">
<title>Node2</title>
<g id="a_node2"><a xlink:href="classmlir_1_1remark_1_1RemarkEmittingPolicyAll.html" target="_top" xlink:title="Policy that emits all remarks.">
<polygon fill="none" stroke="black" points="0,-0.5 0,-30.5 163,-30.5 163,-0.5 0,-0.5"/>
<text text-anchor="start" x="8" y="-18.5" font-family="Helvetica,sans-Serif" font-size="10.00">mlir::remark::RemarkEmitting</text>
<text text-anchor="middle" x="81.5" y="-7.5" font-family="Helvetica,sans-Serif" font-size="10.00">PolicyAll</text>
</a>
</g>
</g>
<!-- Node1&#45;&gt;Node2 -->
<g id="edge1" class="edge">
<title>Node1&#45;&gt;Node2</title>
<path fill="none" stroke="midnightblue" d="M143.74,-61.45C129.89,-51.45 113.48,-39.6 100.99,-30.58"/>
<polygon fill="midnightblue" stroke="midnightblue" points="141.82,-64.38 151.97,-67.4 145.91,-58.7 141.82,-64.38"/>
</g>
<!-- Node3 -->
<g id="node3" class="node">
<title>Node3</title>
<g id="a_node3"><a xlink:href="classmlir_1_1remark_1_1RemarkEmittingPolicyFinal.html" target="_top" xlink:title="Policy that emits final remarks.">
<polygon fill="none" stroke="black" points="181,-0.5 181,-30.5 344,-30.5 344,-0.5 181,-0.5"/>
<text text-anchor="start" x="189" y="-18.5" font-family="Helvetica,sans-Serif" font-size="10.00">mlir::remark::RemarkEmitting</text>
<text text-anchor="middle" x="262.5" y="-7.5" font-family="Helvetica,sans-Serif" font-size="10.00">PolicyFinal</text>
</a>
</g>
</g>
<!-- Node1&#45;&gt;Node3 -->
<g id="edge2" class="edge">
<title>Node1&#45;&gt;Node3</title>
<path fill="none" stroke="midnightblue" d="M199.57,-61.45C213.57,-51.45 230.16,-39.6 242.79,-30.58"/>
<polygon fill="midnightblue" stroke="midnightblue" points="197.35,-58.74 191.25,-67.4 201.42,-64.43 197.35,-58.74"/>
</g>
</g>
</svg>
