<?xml version="1.0" encoding="UTF-8" standalone="no"?>
<!DOCTYPE svg PUBLIC "-//W3C//DTD SVG 1.1//EN"
 "http://www.w3.org/Graphics/SVG/1.1/DTD/svg11.dtd">
<!-- Generated by graphviz version 2.43.0 (0)
 -->
<!-- Title: mlir::detail::PassOptions Pages: 1 -->
<svg width="1130pt" height="387pt"
 viewBox="0.00 0.00 1130.00 386.93" xmlns="http://www.w3.org/2000/svg" xmlns:xlink="http://www.w3.org/1999/xlink">
<g id="graph0" class="graph" transform="scale(1 1) rotate(0) translate(4 382.93)">
<title>mlir::detail::PassOptions</title>
<!-- Node1 -->
<g id="node1" class="node">
<title>Node1</title>
<g id="a_node1"><a xlink:title="Base container class and manager for all pass options.">
<polygon fill="#bfbfbf" stroke="black" points="164,-176.93 164,-195.93 299,-195.93 299,-176.93 164,-176.93"/>
<text text-anchor="middle" x="231.5" y="-183.93" font-family="Helvetica,sans-Serif" font-size="10.00">mlir::detail::PassOptions</text>
</a>
</g>
</g>
<!-- Node3 -->
<g id="node3" class="node">
<title>Node3</title>
<g id="a_node3"><a xlink:href="classmlir_1_1PassPipelineOptions.html" target="_top" xlink:title=" ">
<polygon fill="none" stroke="black" points="709,-196.43 709,-226.43 915,-226.43 915,-196.43 709,-196.43"/>
<text text-anchor="start" x="717" y="-214.43" font-family="Helvetica,sans-Serif" font-size="10.00">mlir::PassPipelineOptions</text>
<text text-anchor="middle" x="812" y="-203.43" font-family="Helvetica,sans-Serif" font-size="10.00">&lt; BufferDeallocationPipelineOptions &gt;</text>
</a>
</g>
</g>
<!-- Node1&#45;&gt;Node3 -->
<g id="edge2" class="edge">
<title>Node1&#45;&gt;Node3</title>
<path fill="none" stroke="midnightblue" d="M265.44,-199.75C340.97,-228.54 532.36,-291.57 691,-260.43 723.9,-253.97 759.16,-238.43 782.88,-226.57"/>
<polygon fill="midnightblue" stroke="midnightblue" points="266.57,-196.43 255.98,-196.09 264.04,-202.96 266.57,-196.43"/>
</g>
<!-- Node5 -->
<g id="node5" class="node">
<title>Node5</title>
<g id="a_node5"><a xlink:href="classmlir_1_1PassPipelineOptions.html" target="_top" xlink:title=" ">
<polygon fill="none" stroke="black" points="742,-283.43 742,-313.43 882,-313.43 882,-283.43 742,-283.43"/>
<text text-anchor="start" x="750" y="-301.43" font-family="Helvetica,sans-Serif" font-size="10.00">mlir::PassPipelineOptions</text>
<text text-anchor="middle" x="812" y="-290.43" font-family="Helvetica,sans-Serif" font-size="10.00">&lt; SparsifierOptions &gt;</text>
</a>
</g>
</g>
<!-- Node1&#45;&gt;Node5 -->
<g id="edge4" class="edge">
<title>Node1&#45;&gt;Node5</title>
<path fill="none" stroke="midnightblue" d="M252.3,-202.53C272.39,-218.25 304.89,-241.99 336,-257.43 414.43,-296.36 436.56,-305.47 523,-319.43 597.24,-331.42 683.36,-322.15 741.94,-312.42"/>
<polygon fill="midnightblue" stroke="midnightblue" points="254.24,-199.61 244.23,-196.13 249.89,-205.09 254.24,-199.61"/>
</g>
<!-- Node7 -->
<g id="node7" class="node">
<title>Node7</title>
<g id="a_node7"><a xlink:href="classmlir_1_1PassPipelineOptions.html" target="_top" xlink:title=" ">
<polygon fill="none" stroke="black" points="738.5,-348.43 738.5,-378.43 885.5,-378.43 885.5,-348.43 738.5,-348.43"/>
<text text-anchor="start" x="746.5" y="-366.43" font-family="Helvetica,sans-Serif" font-size="10.00">mlir::PassPipelineOptions</text>
<text text-anchor="middle" x="812" y="-355.43" font-family="Helvetica,sans-Serif" font-size="10.00">&lt; EmptyPipelineOptions &gt;</text>
</a>
</g>
</g>
<!-- Node1&#45;&gt;Node7 -->
<g id="edge6" class="edge">
<title>Node1&#45;&gt;Node7</title>
<path fill="none" stroke="midnightblue" d="M243.59,-204.78C260.22,-230.6 294.2,-277.08 336,-300.43 463.83,-371.82 640.4,-374.83 738.28,-369.73"/>
<polygon fill="midnightblue" stroke="midnightblue" points="246.35,-202.61 238.08,-195.99 240.42,-206.33 246.35,-202.61"/>
</g>
<!-- Node9 -->
<g id="node9" class="node">
<title>Node9</title>
<g id="a_node9"><a xlink:href="classmlir_1_1PassPipelineOptions.html" target="_top" xlink:title=" ">
<polygon fill="none" stroke="black" points="721.5,-130.43 721.5,-160.43 902.5,-160.43 902.5,-130.43 721.5,-130.43"/>
<text text-anchor="start" x="729.5" y="-148.43" font-family="Helvetica,sans-Serif" font-size="10.00">mlir::PassPipelineOptions</text>
<text text-anchor="middle" x="812" y="-137.43" font-family="Helvetica,sans-Serif" font-size="10.00">&lt; GPUToROCDLPipelineOptions &gt;</text>
</a>
</g>
</g>
<!-- Node1&#45;&gt;Node9 -->
<g id="edge8" class="edge">
<title>Node1&#45;&gt;Node9</title>
<path fill="none" stroke="midnightblue" d="M271.94,-173.77C327.32,-156.73 431.58,-127.29 523,-116.43 597.15,-107.62 616.86,-107.6 691,-116.43 714.09,-119.18 739.17,-124.81 760.39,-130.38"/>
<polygon fill="midnightblue" stroke="midnightblue" points="270.7,-170.49 262.19,-176.8 272.77,-177.18 270.7,-170.49"/>
</g>
<!-- Node11 -->
<g id="node11" class="node">
<title>Node11</title>
<g id="a_node11"><a xlink:href="classmlir_1_1PassPipelineOptions.html" target="_top" xlink:title=" ">
<polygon fill="none" stroke="black" points="724,-75.43 724,-105.43 900,-105.43 900,-75.43 724,-75.43"/>
<text text-anchor="start" x="732" y="-93.43" font-family="Helvetica,sans-Serif" font-size="10.00">mlir::PassPipelineOptions</text>
<text text-anchor="middle" x="812" y="-82.43" font-family="Helvetica,sans-Serif" font-size="10.00">&lt; GPUToXeVMPipelineOptions &gt;</text>
</a>
</g>
</g>
<!-- Node1&#45;&gt;Node11 -->
<g id="edge10" class="edge">
<title>Node1&#45;&gt;Node11</title>
<path fill="none" stroke="midnightblue" d="M251.9,-170.46C271.92,-154.65 304.57,-130.65 336,-115.43 414.32,-77.5 436.97,-70.47 523,-57.43 596.82,-46.25 617,-47.44 691,-57.43 716.8,-60.91 744.9,-68.43 767.42,-75.41"/>
<polygon fill="midnightblue" stroke="midnightblue" points="249.5,-167.9 243.89,-176.89 253.88,-173.36 249.5,-167.9"/>
</g>
<!-- Node13 -->
<g id="node13" class="node">
<title>Node13</title>
<g id="a_node13"><a xlink:href="classmlir_1_1PassPipelineOptions.html" target="_top" xlink:title=" ">
<polygon fill="none" stroke="black" points="723.5,-4.43 723.5,-34.43 900.5,-34.43 900.5,-4.43 723.5,-4.43"/>
<text text-anchor="start" x="731.5" y="-22.43" font-family="Helvetica,sans-Serif" font-size="10.00">mlir::PassPipelineOptions</text>
<text text-anchor="middle" x="812" y="-11.43" font-family="Helvetica,sans-Serif" font-size="10.00">&lt; GPUToNVVMPipelineOptions &gt;</text>
</a>
</g>
</g>
<!-- Node1&#45;&gt;Node13 -->
<g id="edge12" class="edge">
<title>Node1&#45;&gt;Node13</title>
<path fill="none" stroke="midnightblue" d="M241.26,-167.4C256.06,-137.76 289.05,-81.36 336,-56.43 458.19,8.44 623.46,4.34 723.37,-6.3"/>
<polygon fill="midnightblue" stroke="midnightblue" points="237.98,-166.15 236.8,-176.68 244.29,-169.19 237.98,-166.15"/>
</g>
<!-- Node15 -->
<g id="node15" class="node">
<title>Node15</title>
<g id="a_node15"><a xlink:href="classmlir_1_1PassPipelineOptions.html" target="_top" xlink:title="Subclasses of PassPipelineOptions provide a set of options that can be used to initialize a pass pipe...">
<polygon fill="none" stroke="black" points="336,-176.93 336,-195.93 505,-195.93 505,-176.93 336,-176.93"/>
<text text-anchor="middle" x="420.5" y="-183.93" font-family="Helvetica,sans-Serif" font-size="10.00">mlir::PassPipelineOptions&lt; T &gt;</text>
</a>
</g>
</g>
<!-- Node1&#45;&gt;Node15 -->
<g id="edge14" class="edge">
<title>Node1&#45;&gt;Node15</title>
<path fill="none" stroke="midnightblue" d="M309.35,-186.43C318.07,-186.43 327,-186.43 335.8,-186.43"/>
<polygon fill="midnightblue" stroke="midnightblue" points="309.22,-182.93 299.22,-186.43 309.22,-189.93 309.22,-182.93"/>
</g>
<!-- Node2 -->
<g id="node2" class="node">
<title>Node2</title>
<g id="a_node2"><a xlink:href="classllvm_1_1cl_1_1SubCommand.html" target="_top" xlink:title=" ">
<polygon fill="none" stroke="black" points="0,-176.93 0,-195.93 127,-195.93 127,-176.93 0,-176.93"/>
<text text-anchor="middle" x="63.5" y="-183.93" font-family="Helvetica,sans-Serif" font-size="10.00">llvm::cl::SubCommand</text>
</a>
</g>
</g>
<!-- Node2&#45;&gt;Node1 -->
<g id="edge1" class="edge">
<title>Node2&#45;&gt;Node1</title>
<path fill="none" stroke="darkgreen" d="M137.45,-186.43C146.2,-186.43 155.11,-186.43 163.78,-186.43"/>
<polygon fill="darkgreen" stroke="darkgreen" points="137.26,-182.93 127.26,-186.43 137.26,-189.93 137.26,-182.93"/>
</g>
<!-- Node4 -->
<g id="node4" class="node">
<title>Node4</title>
<g id="a_node4"><a xlink:href="structmlir_1_1bufferization_1_1BufferDeallocationPipelineOptions.html" target="_top" xlink:title="Options for the buffer deallocation pipeline.">
<polygon fill="none" stroke="black" points="961,-190.93 961,-231.93 1113,-231.93 1113,-190.93 961,-190.93"/>
<text text-anchor="start" x="969" y="-219.93" font-family="Helvetica,sans-Serif" font-size="10.00">mlir::bufferization</text>
<text text-anchor="start" x="969" y="-208.93" font-family="Helvetica,sans-Serif" font-size="10.00">::BufferDeallocationPipeline</text>
<text text-anchor="middle" x="1037" y="-197.93" font-family="Helvetica,sans-Serif" font-size="10.00">Options</text>
</a>
</g>
</g>
<!-- Node3&#45;&gt;Node4 -->
<g id="edge3" class="edge">
<title>Node3&#45;&gt;Node4</title>
<path fill="none" stroke="midnightblue" d="M925.14,-211.43C937.19,-211.43 949.22,-211.43 960.69,-211.43"/>
<polygon fill="midnightblue" stroke="midnightblue" points="925.04,-207.93 915.04,-211.43 925.04,-214.93 925.04,-207.93"/>
</g>
<!-- Node6 -->
<g id="node6" class="node">
<title>Node6</title>
<g id="a_node6"><a xlink:href="structmlir_1_1sparse__tensor_1_1SparsifierOptions.html" target="_top" xlink:title="Options for the &quot;sparsifier&quot; pipeline.">
<polygon fill="none" stroke="black" points="982,-283.43 982,-313.43 1092,-313.43 1092,-283.43 982,-283.43"/>
<text text-anchor="start" x="990" y="-301.43" font-family="Helvetica,sans-Serif" font-size="10.00">mlir::sparse_tensor</text>
<text text-anchor="middle" x="1037" y="-290.43" font-family="Helvetica,sans-Serif" font-size="10.00">::SparsifierOptions</text>
</a>
</g>
</g>
<!-- Node5&#45;&gt;Node6 -->
<g id="edge5" class="edge">
<title>Node5&#45;&gt;Node6</title>
<path fill="none" stroke="midnightblue" d="M892.36,-298.43C921.99,-298.43 954.93,-298.43 981.79,-298.43"/>
<polygon fill="midnightblue" stroke="midnightblue" points="892.03,-294.93 882.03,-298.43 892.03,-301.93 892.03,-294.93"/>
</g>
<!-- Node8 -->
<g id="node8" class="node">
<title>Node8</title>
<g id="a_node8"><a xlink:href="structmlir_1_1EmptyPipelineOptions.html" target="_top" xlink:title="A default empty option struct to be used for passes that do not need to take any options.">
<polygon fill="none" stroke="black" points="962,-353.93 962,-372.93 1112,-372.93 1112,-353.93 962,-353.93"/>
<text text-anchor="middle" x="1037" y="-360.93" font-family="Helvetica,sans-Serif" font-size="10.00">mlir::EmptyPipelineOptions</text>
</a>
</g>
</g>
<!-- Node7&#45;&gt;Node8 -->
<g id="edge7" class="edge">
<title>Node7&#45;&gt;Node8</title>
<path fill="none" stroke="midnightblue" d="M895.86,-363.43C917.51,-363.43 940.7,-363.43 961.86,-363.43"/>
<polygon fill="midnightblue" stroke="midnightblue" points="895.71,-359.93 885.71,-363.43 895.71,-366.93 895.71,-359.93"/>
</g>
<!-- Node10 -->
<g id="node10" class="node">
<title>Node10</title>
<g id="a_node10"><a xlink:href="structmlir_1_1gpu_1_1GPUToROCDLPipelineOptions.html" target="_top" xlink:title="Options for the gpu to rocdl pipeline.">
<polygon fill="none" stroke="black" points="952,-130.43 952,-160.43 1122,-160.43 1122,-130.43 952,-130.43"/>
<text text-anchor="start" x="960" y="-148.43" font-family="Helvetica,sans-Serif" font-size="10.00">mlir::gpu::GPUToROCDLPipeline</text>
<text text-anchor="middle" x="1037" y="-137.43" font-family="Helvetica,sans-Serif" font-size="10.00">Options</text>
</a>
</g>
</g>
<!-- Node9&#45;&gt;Node10 -->
<g id="edge9" class="edge">
<title>Node9&#45;&gt;Node10</title>
<path fill="none" stroke="midnightblue" d="M913.07,-145.43C926.03,-145.43 939.2,-145.43 951.86,-145.43"/>
<polygon fill="midnightblue" stroke="midnightblue" points="912.74,-141.93 902.74,-145.43 912.74,-148.93 912.74,-141.93"/>
</g>
<!-- Node12 -->
<g id="node12" class="node">
<title>Node12</title>
<g id="a_node12"><a xlink:href="structmlir_1_1gpu_1_1GPUToXeVMPipelineOptions.html" target="_top" xlink:title=" ">
<polygon fill="none" stroke="black" points="954.5,-75.43 954.5,-105.43 1119.5,-105.43 1119.5,-75.43 954.5,-75.43"/>
<text text-anchor="start" x="962.5" y="-93.43" font-family="Helvetica,sans-Serif" font-size="10.00">mlir::gpu::GPUToXeVMPipeline</text>
<text text-anchor="middle" x="1037" y="-82.43" font-family="Helvetica,sans-Serif" font-size="10.00">Options</text>
</a>
</g>
</g>
<!-- Node11&#45;&gt;Node12 -->
<g id="edge11" class="edge">
<title>Node11&#45;&gt;Node12</title>
<path fill="none" stroke="midnightblue" d="M910.29,-90.43C924.99,-90.43 940.02,-90.43 954.35,-90.43"/>
<polygon fill="midnightblue" stroke="midnightblue" points="910.18,-86.93 900.18,-90.43 910.18,-93.93 910.18,-86.93"/>
</g>
<!-- Node14 -->
<g id="node14" class="node">
<title>Node14</title>
<g id="a_node14"><a xlink:href="structmlir_1_1gpu_1_1GPUToNVVMPipelineOptions.html" target="_top" xlink:title="Options for the gpu to nvvm pipeline.">
<polygon fill="none" stroke="black" points="953.5,-4.43 953.5,-34.43 1120.5,-34.43 1120.5,-4.43 953.5,-4.43"/>
<text text-anchor="start" x="961.5" y="-22.43" font-family="Helvetica,sans-Serif" font-size="10.00">mlir::gpu::GPUToNVVMPipeline</text>
<text text-anchor="middle" x="1037" y="-11.43" font-family="Helvetica,sans-Serif" font-size="10.00">Options</text>
</a>
</g>
</g>
<!-- Node13&#45;&gt;Node14 -->
<g id="edge13" class="edge">
<title>Node13&#45;&gt;Node14</title>
<path fill="none" stroke="midnightblue" d="M911.03,-19.43C925.16,-19.43 939.57,-19.43 953.36,-19.43"/>
<polygon fill="midnightblue" stroke="midnightblue" points="910.82,-15.93 900.82,-19.43 910.82,-22.93 910.82,-15.93"/>
</g>
<!-- Node15&#45;&gt;Node3 -->
<g id="edge15" class="edge">
<title>Node15&#45;&gt;Node3</title>
<path fill="none" stroke="orange" stroke-dasharray="5,2" d="M515.39,-192.46C573.82,-196.21 648.97,-201.03 708.88,-204.88"/>
<polygon fill="orange" stroke="orange" points="515.26,-188.94 505.06,-191.79 514.81,-195.93 515.26,-188.94"/>
<text text-anchor="start" x="534.5" y="-217.43" font-family="Helvetica,sans-Serif" font-size="10.00"> &lt; BufferDeallocationPipeline</text>
<text text-anchor="middle" x="607" y="-206.43" font-family="Helvetica,sans-Serif" font-size="10.00">Options &gt;</text>
</g>
<!-- Node15&#45;&gt;Node5 -->
<g id="edge16" class="edge">
<title>Node15&#45;&gt;Node5</title>
<path fill="none" stroke="orange" stroke-dasharray="5,2" d="M452.85,-200.01C472.71,-208.31 499.08,-218.77 523,-226.43 596.74,-250.07 683.13,-270.76 741.92,-283.82"/>
<polygon fill="orange" stroke="orange" points="453.95,-196.68 443.38,-196.01 451.23,-203.13 453.95,-196.68"/>
<text text-anchor="middle" x="607" y="-273.43" font-family="Helvetica,sans-Serif" font-size="10.00"> &lt; SparsifierOptions &gt;</text>
</g>
<!-- Node15&#45;&gt;Node7 -->
<g id="edge17" class="edge">
<title>Node15&#45;&gt;Node7</title>
<path fill="none" stroke="orange" stroke-dasharray="5,2" d="M434.65,-203.89C452.31,-226.13 485.82,-264.21 523,-285.43 590.48,-323.95 677.76,-344.11 738.47,-354.2"/>
<polygon fill="orange" stroke="orange" points="437.38,-201.7 428.48,-195.95 431.85,-206 437.38,-201.7"/>
<text text-anchor="middle" x="607" y="-347.43" font-family="Helvetica,sans-Serif" font-size="10.00"> &lt; EmptyPipelineOptions &gt;</text>
</g>
<!-- Node15&#45;&gt;Node9 -->
<g id="edge18" class="edge">
<title>Node15&#45;&gt;Node9</title>
<path fill="none" stroke="orange" stroke-dasharray="5,2" d="M515.33,-176.55C577.94,-169.96 659.78,-161.35 721.48,-154.85"/>
<polygon fill="orange" stroke="orange" points="514.64,-173.11 505.06,-177.64 515.37,-180.07 514.64,-173.11"/>
<text text-anchor="middle" x="607" y="-179.43" font-family="Helvetica,sans-Serif" font-size="10.00"> &lt; GPUToROCDLPipelineOptions &gt;</text>
</g>
<!-- Node15&#45;&gt;Node11 -->
<g id="edge19" class="edge">
<title>Node15&#45;&gt;Node11</title>
<path fill="none" stroke="orange" stroke-dasharray="5,2" d="M450.45,-172.57C470.45,-163.46 497.86,-151.9 523,-144.43 589.2,-124.76 666.17,-110.77 723.88,-101.96"/>
<polygon fill="orange" stroke="orange" points="448.88,-169.44 441.28,-176.81 451.82,-175.79 448.88,-169.44"/>
<text text-anchor="middle" x="607" y="-147.43" font-family="Helvetica,sans-Serif" font-size="10.00"> &lt; GPUToXeVMPipelineOptions &gt;</text>
</g>
<!-- Node15&#45;&gt;Node13 -->
<g id="edge20" class="edge">
<title>Node15&#45;&gt;Node13</title>
<path fill="none" stroke="orange" stroke-dasharray="5,2" d="M435.63,-169.06C453.7,-148.01 486.99,-112.95 523,-93.43 585.52,-59.55 664.15,-40.7 723.44,-30.52"/>
<polygon fill="orange" stroke="orange" points="432.81,-166.98 429.06,-176.89 438.17,-171.48 432.81,-166.98"/>
<text text-anchor="middle" x="607" y="-96.43" font-family="Helvetica,sans-Serif" font-size="10.00"> &lt; GPUToNVVMPipelineOptions &gt;</text>
</g>
</g>
</svg>
