<?xml version="1.0" encoding="UTF-8" standalone="no"?>
<!DOCTYPE svg PUBLIC "-//W3C//DTD SVG 1.1//EN"
 "http://www.w3.org/Graphics/SVG/1.1/DTD/svg11.dtd">
<!-- Generated by graphviz version 2.43.0 (0)
 -->
<!-- Title: lib/Target/LLVMIR/Dialect Pages: 1 -->
<svg width="1064pt" height="159pt"
 viewBox="0.00 0.00 1064.00 159.00" xmlns="http://www.w3.org/2000/svg" xmlns:xlink="http://www.w3.org/1999/xlink">
<g id="graph0" class="graph" transform="scale(1 1) rotate(0) translate(4 155)">
<title>lib/Target/LLVMIR/Dialect</title>
<g id="clust1" class="cluster">
<title>clusterdir_12a96bdcc885ecacc799866a8efa56d5</title>
<g id="a_clust1"><a xlink:href="dir_12a96bdcc885ecacc799866a8efa56d5.html" target="_top" xlink:title="LLVMIR">
<polygon fill="#ddddee" stroke="black" points="8,-56 8,-143 1048,-143 1048,-56 8,-56"/>
<text text-anchor="middle" x="528" y="-131" font-family="Helvetica,sans-Serif" font-size="10.00">LLVMIR</text>
</a>
</g>
</g>
<g id="clust2" class="cluster">
<title>clusterdir_38c1dda222e2fa1f8060eb14e2940f7d</title>
<g id="a_clust2"><a xlink:href="dir_38c1dda222e2fa1f8060eb14e2940f7d.html" target="_top">
<polygon fill="#eeeeff" stroke="black" points="16,-64 16,-116 1040,-116 1040,-64 16,-64"/>
</a>
</g>
</g>
<!-- dir_38c1dda222e2fa1f8060eb14e2940f7d -->
<g id="node1" class="node">
<title>dir_38c1dda222e2fa1f8060eb14e2940f7d</title>
<text text-anchor="middle" x="1005" y="-87.5" font-family="Helvetica,sans-Serif" font-size="10.00">Dialect</text>
</g>
<!-- dir_08eae7bf99c59a1fb70d86c1f23b4cd4 -->
<g id="node2" class="node">
<title>dir_08eae7bf99c59a1fb70d86c1f23b4cd4</title>
<g id="a_node2"><a xlink:href="dir_08eae7bf99c59a1fb70d86c1f23b4cd4.html" target="_top" xlink:title="ArmNeon">
<polygon fill="white" stroke="black" points="960,-108 898,-108 898,-72 960,-72 960,-108"/>
<text text-anchor="middle" x="929" y="-87.5" font-family="Helvetica,sans-Serif" font-size="10.00">ArmNeon</text>
</a>
</g>
</g>
<!-- dir_d44c64559bbebec7f509842c48db8b23 -->
<g id="node15" class="node">
<title>dir_d44c64559bbebec7f509842c48db8b23</title>
<g id="a_node15"><a xlink:href="dir_d44c64559bbebec7f509842c48db8b23.html" target="_top" xlink:title="include">
<polygon fill="none" stroke="red" points="514,-36 460,-36 460,0 514,0 514,-36"/>
<text text-anchor="middle" x="487" y="-15.5" font-family="Helvetica,sans-Serif" font-size="10.00">include</text>
</a>
</g>
</g>
<!-- dir_08eae7bf99c59a1fb70d86c1f23b4cd4&#45;&gt;dir_d44c64559bbebec7f509842c48db8b23 -->
<g id="edge3" class="edge">
<title>dir_08eae7bf99c59a1fb70d86c1f23b4cd4&#45;&gt;dir_d44c64559bbebec7f509842c48db8b23</title>
<path fill="none" stroke="black" d="M912.6,-71.69C905.88,-65.68 897.66,-59.57 889,-56 823.53,-29.03 610.94,-21.58 524.29,-19.64"/>
<polygon fill="black" stroke="black" points="524.19,-16.14 514.12,-19.43 524.04,-23.14 524.19,-16.14"/>
<g id="a_edge3&#45;headlabel"><a xlink:href="dir_000671_000001.html" target="_top" xlink:title="4">
<text text-anchor="middle" x="527.84" y="-10.88" font-family="Helvetica,sans-Serif" font-size="10.00">4</text>
</a>
</g>
</g>
<!-- dir_97bc9e4d2063fbe2d0044b91188cf865 -->
<g id="node3" class="node">
<title>dir_97bc9e4d2063fbe2d0044b91188cf865</title>
<g id="a_node3"><a xlink:href="dir_97bc9e4d2063fbe2d0044b91188cf865.html" target="_top" xlink:title="ArmSME">
<polygon fill="white" stroke="black" points="880,-108 822,-108 822,-72 880,-72 880,-108"/>
<text text-anchor="middle" x="851" y="-87.5" font-family="Helvetica,sans-Serif" font-size="10.00">ArmSME</text>
</a>
</g>
</g>
<!-- dir_97bc9e4d2063fbe2d0044b91188cf865&#45;&gt;dir_d44c64559bbebec7f509842c48db8b23 -->
<g id="edge1" class="edge">
<title>dir_97bc9e4d2063fbe2d0044b91188cf865&#45;&gt;dir_d44c64559bbebec7f509842c48db8b23</title>
<path fill="none" stroke="black" d="M835.52,-71.78C829.15,-65.79 821.32,-59.66 813,-56 762.05,-33.61 598.97,-23.84 524.6,-20.48"/>
<polygon fill="black" stroke="black" points="524.44,-16.96 514.3,-20.02 524.13,-23.96 524.44,-16.96"/>
<g id="a_edge1&#45;headlabel"><a xlink:href="dir_000672_000001.html" target="_top" xlink:title="4">
<text text-anchor="middle" x="528.15" y="-11.79" font-family="Helvetica,sans-Serif" font-size="10.00">4</text>
</a>
</g>
</g>
<!-- dir_06655fa8276973cd9c81db75fa29de48 -->
<g id="node4" class="node">
<title>dir_06655fa8276973cd9c81db75fa29de48</title>
<g id="a_node4"><a xlink:href="dir_06655fa8276973cd9c81db75fa29de48.html" target="_top" xlink:title="ArmSVE">
<polygon fill="white" stroke="black" points="804,-108 748,-108 748,-72 804,-72 804,-108"/>
<text text-anchor="middle" x="776" y="-87.5" font-family="Helvetica,sans-Serif" font-size="10.00">ArmSVE</text>
</a>
</g>
</g>
<!-- dir_06655fa8276973cd9c81db75fa29de48&#45;&gt;dir_d44c64559bbebec7f509842c48db8b23 -->
<g id="edge7" class="edge">
<title>dir_06655fa8276973cd9c81db75fa29de48&#45;&gt;dir_d44c64559bbebec7f509842c48db8b23</title>
<path fill="none" stroke="black" d="M760.94,-71.92C754.74,-65.95 747.11,-59.79 739,-56 701.68,-38.56 585.2,-26.91 524.56,-21.86"/>
<polygon fill="black" stroke="black" points="524.52,-18.34 514.27,-21.02 523.95,-25.32 524.52,-18.34"/>
<g id="a_edge7&#45;headlabel"><a xlink:href="dir_000673_000001.html" target="_top" xlink:title="4">
<text text-anchor="middle" x="528.33" y="-13.3" font-family="Helvetica,sans-Serif" font-size="10.00">4</text>
</a>
</g>
</g>
<!-- dir_3763fa03ea1efc359300a441044249ae -->
<g id="node5" class="node">
<title>dir_3763fa03ea1efc359300a441044249ae</title>
<g id="a_node5"><a xlink:href="dir_3763fa03ea1efc359300a441044249ae.html" target="_top" xlink:title="Builtin">
<polygon fill="white" stroke="black" points="730,-108 676,-108 676,-72 730,-72 730,-108"/>
<text text-anchor="middle" x="703" y="-87.5" font-family="Helvetica,sans-Serif" font-size="10.00">Builtin</text>
</a>
</g>
</g>
<!-- dir_3763fa03ea1efc359300a441044249ae&#45;&gt;dir_d44c64559bbebec7f509842c48db8b23 -->
<g id="edge10" class="edge">
<title>dir_3763fa03ea1efc359300a441044249ae&#45;&gt;dir_d44c64559bbebec7f509842c48db8b23</title>
<path fill="none" stroke="black" d="M687.95,-71.81C681.98,-65.97 674.7,-59.93 667,-56 621.3,-32.65 561.95,-24.03 524.16,-20.86"/>
<polygon fill="black" stroke="black" points="524.33,-17.36 514.1,-20.1 523.81,-24.34 524.33,-17.36"/>
<g id="a_edge10&#45;headlabel"><a xlink:href="dir_000674_000001.html" target="_top" xlink:title="4">
<text text-anchor="middle" x="528.13" y="-12.3" font-family="Helvetica,sans-Serif" font-size="10.00">4</text>
</a>
</g>
</g>
<!-- dir_e7c02fc968838eb6e066014c606f1bb8 -->
<g id="node6" class="node">
<title>dir_e7c02fc968838eb6e066014c606f1bb8</title>
<g id="a_node6"><a xlink:href="dir_e7c02fc968838eb6e066014c606f1bb8.html" target="_top" xlink:title="GPU">
<polygon fill="white" stroke="black" points="658,-108 604,-108 604,-72 658,-72 658,-108"/>
<text text-anchor="middle" x="631" y="-87.5" font-family="Helvetica,sans-Serif" font-size="10.00">GPU</text>
</a>
</g>
</g>
<!-- dir_e7c02fc968838eb6e066014c606f1bb8&#45;&gt;dir_d44c64559bbebec7f509842c48db8b23 -->
<g id="edge2" class="edge">
<title>dir_e7c02fc968838eb6e066014c606f1bb8&#45;&gt;dir_d44c64559bbebec7f509842c48db8b23</title>
<path fill="none" stroke="black" d="M615.31,-72C609.38,-66.31 602.29,-60.33 595,-56 572.93,-42.89 545.56,-33.58 523.89,-27.57"/>
<polygon fill="black" stroke="black" points="524.63,-24.15 514.07,-24.97 522.84,-30.92 524.63,-24.15"/>
<g id="a_edge2&#45;headlabel"><a xlink:href="dir_000675_000001.html" target="_top" xlink:title="8">
<text text-anchor="middle" x="528.83" y="-19.83" font-family="Helvetica,sans-Serif" font-size="10.00">8</text>
</a>
</g>
</g>
<!-- dir_d68897ed9cc508da456282cb0b9cc418 -->
<g id="node7" class="node">
<title>dir_d68897ed9cc508da456282cb0b9cc418</title>
<g id="a_node7"><a xlink:href="dir_d68897ed9cc508da456282cb0b9cc418.html" target="_top" xlink:title="LLVMIR">
<polygon fill="white" stroke="black" points="586,-108 532,-108 532,-72 586,-72 586,-108"/>
<text text-anchor="middle" x="559" y="-87.5" font-family="Helvetica,sans-Serif" font-size="10.00">LLVMIR</text>
</a>
</g>
</g>
<!-- dir_d68897ed9cc508da456282cb0b9cc418&#45;&gt;dir_d44c64559bbebec7f509842c48db8b23 -->
<g id="edge9" class="edge">
<title>dir_d68897ed9cc508da456282cb0b9cc418&#45;&gt;dir_d44c64559bbebec7f509842c48db8b23</title>
<path fill="none" stroke="black" d="M541.2,-71.7C532.4,-63.14 521.62,-52.66 512,-43.3"/>
<polygon fill="black" stroke="black" points="514.2,-40.57 504.59,-36.1 509.32,-45.58 514.2,-40.57"/>
<g id="a_edge9&#45;headlabel"><a xlink:href="dir_000676_000001.html" target="_top" xlink:title="13">
<text text-anchor="middle" x="518.76" y="-38.54" font-family="Helvetica,sans-Serif" font-size="10.00">13</text>
</a>
</g>
</g>
<!-- dir_a795060be2e7cdd0245232cf9cc4da49 -->
<g id="node8" class="node">
<title>dir_a795060be2e7cdd0245232cf9cc4da49</title>
<g id="a_node8"><a xlink:href="dir_a795060be2e7cdd0245232cf9cc4da49.html" target="_top" xlink:title="NVVM">
<polygon fill="white" stroke="black" points="514,-108 460,-108 460,-72 514,-72 514,-108"/>
<text text-anchor="middle" x="487" y="-87.5" font-family="Helvetica,sans-Serif" font-size="10.00">NVVM</text>
</a>
</g>
</g>
<!-- dir_a795060be2e7cdd0245232cf9cc4da49&#45;&gt;dir_d44c64559bbebec7f509842c48db8b23 -->
<g id="edge12" class="edge">
<title>dir_a795060be2e7cdd0245232cf9cc4da49&#45;&gt;dir_d44c64559bbebec7f509842c48db8b23</title>
<path fill="none" stroke="black" d="M487,-71.7C487,-63.98 487,-54.71 487,-46.11"/>
<polygon fill="black" stroke="black" points="490.5,-46.1 487,-36.1 483.5,-46.1 490.5,-46.1"/>
<g id="a_edge12&#45;headlabel"><a xlink:href="dir_000677_000001.html" target="_top" xlink:title="7">
<text text-anchor="middle" x="493.34" y="-47.2" font-family="Helvetica,sans-Serif" font-size="10.00">7</text>
</a>
</g>
</g>
<!-- dir_d09a340c4a749dcbe74b34243f5130f5 -->
<g id="node9" class="node">
<title>dir_d09a340c4a749dcbe74b34243f5130f5</title>
<g id="a_node9"><a xlink:href="dir_d09a340c4a749dcbe74b34243f5130f5.html" target="_top" xlink:title="OpenMP">
<polygon fill="white" stroke="black" points="441.5,-108 384.5,-108 384.5,-72 441.5,-72 441.5,-108"/>
<text text-anchor="middle" x="413" y="-87.5" font-family="Helvetica,sans-Serif" font-size="10.00">OpenMP</text>
</a>
</g>
</g>
<!-- dir_d09a340c4a749dcbe74b34243f5130f5&#45;&gt;dir_d44c64559bbebec7f509842c48db8b23 -->
<g id="edge13" class="edge">
<title>dir_d09a340c4a749dcbe74b34243f5130f5&#45;&gt;dir_d44c64559bbebec7f509842c48db8b23</title>
<path fill="none" stroke="black" d="M431.29,-71.7C440.43,-63.05 451.64,-52.45 461.6,-43.03"/>
<polygon fill="black" stroke="black" points="464.06,-45.52 468.92,-36.1 459.25,-40.43 464.06,-45.52"/>
<g id="a_edge13&#45;headlabel"><a xlink:href="dir_000678_000001.html" target="_top" xlink:title="13">
<text text-anchor="middle" x="463.4" y="-47.55" font-family="Helvetica,sans-Serif" font-size="10.00">13</text>
</a>
</g>
</g>
<!-- dir_35829c8310f07cd5ec012dcd3c5bcdc5 -->
<g id="node10" class="node">
<title>dir_35829c8310f07cd5ec012dcd3c5bcdc5</title>
<g id="a_node10"><a xlink:href="dir_35829c8310f07cd5ec012dcd3c5bcdc5.html" target="_top" xlink:title="Ptr">
<polygon fill="white" stroke="black" points="366,-108 312,-108 312,-72 366,-72 366,-108"/>
<text text-anchor="middle" x="339" y="-87.5" font-family="Helvetica,sans-Serif" font-size="10.00">Ptr</text>
</a>
</g>
</g>
<!-- dir_35829c8310f07cd5ec012dcd3c5bcdc5&#45;&gt;dir_d44c64559bbebec7f509842c48db8b23 -->
<g id="edge4" class="edge">
<title>dir_35829c8310f07cd5ec012dcd3c5bcdc5&#45;&gt;dir_d44c64559bbebec7f509842c48db8b23</title>
<path fill="none" stroke="black" d="M355.18,-71.98C361.28,-66.29 368.55,-60.31 376,-56 399.02,-42.67 427.53,-33.29 449.89,-27.32"/>
<polygon fill="black" stroke="black" points="450.87,-30.68 459.69,-24.81 449.14,-23.9 450.87,-30.68"/>
<g id="a_edge4&#45;headlabel"><a xlink:href="dir_000679_000001.html" target="_top" xlink:title="5">
<text text-anchor="middle" x="448.1" y="-31.82" font-family="Helvetica,sans-Serif" font-size="10.00">5</text>
</a>
</g>
</g>
<!-- dir_7bf144fdde12bc8b5f82e0b1e31d4c3b -->
<g id="node11" class="node">
<title>dir_7bf144fdde12bc8b5f82e0b1e31d4c3b</title>
<g id="a_node11"><a xlink:href="dir_7bf144fdde12bc8b5f82e0b1e31d4c3b.html" target="_top" xlink:title="ROCDL">
<polygon fill="white" stroke="black" points="294,-108 240,-108 240,-72 294,-72 294,-108"/>
<text text-anchor="middle" x="267" y="-87.5" font-family="Helvetica,sans-Serif" font-size="10.00">ROCDL</text>
</a>
</g>
</g>
<!-- dir_7bf144fdde12bc8b5f82e0b1e31d4c3b&#45;&gt;dir_d44c64559bbebec7f509842c48db8b23 -->
<g id="edge11" class="edge">
<title>dir_7bf144fdde12bc8b5f82e0b1e31d4c3b&#45;&gt;dir_d44c64559bbebec7f509842c48db8b23</title>
<path fill="none" stroke="black" d="M282.04,-71.8C288.01,-65.95 295.29,-59.92 303,-56 350,-32.12 411.08,-23.64 449.68,-20.64"/>
<polygon fill="black" stroke="black" points="450.2,-24.11 459.94,-19.93 449.72,-17.13 450.2,-24.11"/>
<g id="a_edge11&#45;headlabel"><a xlink:href="dir_000680_000001.html" target="_top" xlink:title="5">
<text text-anchor="middle" x="446.81" y="-24.69" font-family="Helvetica,sans-Serif" font-size="10.00">5</text>
</a>
</g>
</g>
<!-- dir_82b6fc42bb78236c6852c28ee0599f24 -->
<g id="node12" class="node">
<title>dir_82b6fc42bb78236c6852c28ee0599f24</title>
<g id="a_node12"><a xlink:href="dir_82b6fc42bb78236c6852c28ee0599f24.html" target="_top" xlink:title="SPIRV">
<polygon fill="white" stroke="black" points="222,-108 168,-108 168,-72 222,-72 222,-108"/>
<text text-anchor="middle" x="195" y="-87.5" font-family="Helvetica,sans-Serif" font-size="10.00">SPIRV</text>
</a>
</g>
</g>
<!-- dir_82b6fc42bb78236c6852c28ee0599f24&#45;&gt;dir_d44c64559bbebec7f509842c48db8b23 -->
<g id="edge8" class="edge">
<title>dir_82b6fc42bb78236c6852c28ee0599f24&#45;&gt;dir_d44c64559bbebec7f509842c48db8b23</title>
<path fill="none" stroke="black" d="M209.58,-71.91C215.6,-65.93 223.03,-59.78 231,-56 268.97,-38 388.27,-26.54 449.67,-21.68"/>
<polygon fill="black" stroke="black" points="450.02,-25.16 459.72,-20.9 449.48,-18.19 450.02,-25.16"/>
<g id="a_edge8&#45;headlabel"><a xlink:href="dir_000681_000001.html" target="_top" xlink:title="3">
<text text-anchor="middle" x="446.65" y="-25.77" font-family="Helvetica,sans-Serif" font-size="10.00">3</text>
</a>
</g>
</g>
<!-- dir_525eca5dd1bc88a09b7f0e80db16093c -->
<g id="node13" class="node">
<title>dir_525eca5dd1bc88a09b7f0e80db16093c</title>
<g id="a_node13"><a xlink:href="dir_525eca5dd1bc88a09b7f0e80db16093c.html" target="_top" xlink:title="VCIX">
<polygon fill="white" stroke="black" points="150,-108 96,-108 96,-72 150,-72 150,-108"/>
<text text-anchor="middle" x="123" y="-87.5" font-family="Helvetica,sans-Serif" font-size="10.00">VCIX</text>
</a>
</g>
</g>
<!-- dir_525eca5dd1bc88a09b7f0e80db16093c&#45;&gt;dir_d44c64559bbebec7f509842c48db8b23 -->
<g id="edge6" class="edge">
<title>dir_525eca5dd1bc88a09b7f0e80db16093c&#45;&gt;dir_d44c64559bbebec7f509842c48db8b23</title>
<path fill="none" stroke="black" d="M137.52,-71.78C143.53,-65.78 150.97,-59.65 159,-56 210.02,-32.78 374.6,-23.44 449.39,-20.33"/>
<polygon fill="black" stroke="black" points="449.9,-23.81 459.75,-19.91 449.62,-16.82 449.9,-23.81"/>
<g id="a_edge6&#45;headlabel"><a xlink:href="dir_000682_000001.html" target="_top" xlink:title="5">
<text text-anchor="middle" x="446.42" y="-24.29" font-family="Helvetica,sans-Serif" font-size="10.00">5</text>
</a>
</g>
</g>
<!-- dir_01593566338cdf829d9d1405d4ef079e -->
<g id="node14" class="node">
<title>dir_01593566338cdf829d9d1405d4ef079e</title>
<g id="a_node14"><a xlink:href="dir_01593566338cdf829d9d1405d4ef079e.html" target="_top" xlink:title="XeVM">
<polygon fill="white" stroke="black" points="78,-108 24,-108 24,-72 78,-72 78,-108"/>
<text text-anchor="middle" x="51" y="-87.5" font-family="Helvetica,sans-Serif" font-size="10.00">XeVM</text>
</a>
</g>
</g>
<!-- dir_01593566338cdf829d9d1405d4ef079e&#45;&gt;dir_d44c64559bbebec7f509842c48db8b23 -->
<g id="edge5" class="edge">
<title>dir_01593566338cdf829d9d1405d4ef079e&#45;&gt;dir_d44c64559bbebec7f509842c48db8b23</title>
<path fill="none" stroke="black" d="M65.48,-71.69C71.49,-65.69 78.94,-59.57 87,-56 151.42,-27.46 363.37,-20.92 449.8,-19.43"/>
<polygon fill="black" stroke="black" points="450,-22.93 459.94,-19.27 449.89,-15.93 450,-22.93"/>
<g id="a_edge5&#45;headlabel"><a xlink:href="dir_000683_000001.html" target="_top" xlink:title="5">
<text text-anchor="middle" x="446.45" y="-23.33" font-family="Helvetica,sans-Serif" font-size="10.00">5</text>
</a>
</g>
</g>
</g>
</svg>
