<?xml version="1.0" encoding="UTF-8" standalone="no"?>
<!DOCTYPE svg PUBLIC "-//W3C//DTD SVG 1.1//EN"
 "http://www.w3.org/Graphics/SVG/1.1/DTD/svg11.dtd">
<!-- Generated by graphviz version 2.43.0 (0)
 -->
<!-- Title: include/mlir/Dialect/Func Pages: 1 -->
<svg width="607pt" height="375pt"
 viewBox="0.00 0.00 606.86 375.00" xmlns="http://www.w3.org/2000/svg" xmlns:xlink="http://www.w3.org/1999/xlink">
<g id="graph0" class="graph" transform="scale(1 1) rotate(0) translate(4 371)">
<title>include/mlir/Dialect/Func</title>
<g id="clust1" class="cluster">
<title>clusterdir_d07a6fac82475a065a3b2953573f00a0</title>
<g id="a_clust1"><a xlink:href="dir_d07a6fac82475a065a3b2953573f00a0.html" target="_top" xlink:title="Dialect">
<polygon fill="#ddddee" stroke="black" points="8,-208 8,-359 518,-359 518,-208 8,-208"/>
<text text-anchor="middle" x="263" y="-347" font-family="Helvetica,sans-Serif" font-size="10.00">Dialect</text>
</a>
</g>
</g>
<g id="clust2" class="cluster">
<title>clusterdir_342ad3e7b83526a7f418520e380404a9</title>
<g id="a_clust2"><a xlink:href="dir_342ad3e7b83526a7f418520e380404a9.html" target="_top">
<polygon fill="#eeeeff" stroke="black" points="16,-280 16,-332 510,-332 510,-280 16,-280"/>
</a>
</g>
</g>
<!-- dir_832fe9af74a05d9f4772b8e442bafd02 -->
<g id="node1" class="node">
<title>dir_832fe9af74a05d9f4772b8e442bafd02</title>
<g id="a_node1"><a xlink:href="dir_832fe9af74a05d9f4772b8e442bafd02.html" target="_top" xlink:title="Transform">
<polygon fill="none" stroke="red" points="149.5,-252 84.5,-252 84.5,-216 149.5,-216 149.5,-252"/>
<text text-anchor="middle" x="117" y="-231.5" font-family="Helvetica,sans-Serif" font-size="10.00">Transform</text>
</a>
</g>
</g>
<!-- dir_84ef7c054b4edc3447cfba80cee80f65 -->
<g id="node8" class="node">
<title>dir_84ef7c054b4edc3447cfba80cee80f65</title>
<g id="a_node8"><a xlink:href="dir_84ef7c054b4edc3447cfba80cee80f65.html" target="_top" xlink:title="IR">
<polygon fill="none" stroke="black" points="243,-180 189,-180 189,-144 243,-144 243,-180"/>
<text text-anchor="middle" x="216" y="-159.5" font-family="Helvetica,sans-Serif" font-size="10.00">IR</text>
</a>
</g>
</g>
<!-- dir_832fe9af74a05d9f4772b8e442bafd02&#45;&gt;dir_84ef7c054b4edc3447cfba80cee80f65 -->
<g id="edge19" class="edge">
<title>dir_832fe9af74a05d9f4772b8e442bafd02&#45;&gt;dir_84ef7c054b4edc3447cfba80cee80f65</title>
<path fill="none" stroke="black" d="M141.22,-215.88C153.92,-206.89 169.66,-195.76 183.42,-186.03"/>
<polygon fill="black" stroke="black" points="185.54,-188.82 191.69,-180.19 181.5,-183.11 185.54,-188.82"/>
<g id="a_edge19&#45;headlabel"><a xlink:href="dir_000040_000057.html" target="_top" xlink:title="31">
<text text-anchor="middle" x="184.25" y="-190.71" font-family="Helvetica,sans-Serif" font-size="10.00">31</text>
</a>
</g>
</g>
<!-- dir_51020c1b0909ae629a35fe1c65c620b9 -->
<g id="node9" class="node">
<title>dir_51020c1b0909ae629a35fe1c65c620b9</title>
<g id="a_node9"><a xlink:href="dir_51020c1b0909ae629a35fe1c65c620b9.html" target="_top" xlink:title="Bytecode">
<polygon fill="none" stroke="black" points="302,-108 240,-108 240,-72 302,-72 302,-108"/>
<text text-anchor="middle" x="271" y="-87.5" font-family="Helvetica,sans-Serif" font-size="10.00">Bytecode</text>
</a>
</g>
</g>
<!-- dir_832fe9af74a05d9f4772b8e442bafd02&#45;&gt;dir_51020c1b0909ae629a35fe1c65c620b9 -->
<g id="edge18" class="edge">
<title>dir_832fe9af74a05d9f4772b8e442bafd02&#45;&gt;dir_51020c1b0909ae629a35fe1c65c620b9</title>
<path fill="none" stroke="black" d="M126.09,-215.95C136.97,-196.71 156.68,-165.34 180,-144 194.91,-130.36 213.91,-118.62 230.68,-109.68"/>
<polygon fill="black" stroke="black" points="232.46,-112.7 239.74,-105 229.25,-106.48 232.46,-112.7"/>
<g id="a_edge18&#45;headlabel"><a xlink:href="dir_000040_000060.html" target="_top" xlink:title="7">
<text text-anchor="middle" x="230.56" y="-114.37" font-family="Helvetica,sans-Serif" font-size="10.00">7</text>
</a>
</g>
</g>
<!-- dir_cf63c3ddb21c79ef735682489f4c6a69 -->
<g id="node10" class="node">
<title>dir_cf63c3ddb21c79ef735682489f4c6a69</title>
<g id="a_node10"><a xlink:href="dir_cf63c3ddb21c79ef735682489f4c6a69.html" target="_top" xlink:title="Interfaces">
<polygon fill="none" stroke="red" points="183.5,-108 118.5,-108 118.5,-72 183.5,-72 183.5,-108"/>
<text text-anchor="middle" x="151" y="-87.5" font-family="Helvetica,sans-Serif" font-size="10.00">Interfaces</text>
</a>
</g>
</g>
<!-- dir_832fe9af74a05d9f4772b8e442bafd02&#45;&gt;dir_cf63c3ddb21c79ef735682489f4c6a69 -->
<g id="edge20" class="edge">
<title>dir_832fe9af74a05d9f4772b8e442bafd02&#45;&gt;dir_cf63c3ddb21c79ef735682489f4c6a69</title>
<path fill="none" stroke="black" d="M121.1,-215.87C126.92,-191.56 137.63,-146.82 144.53,-118.01"/>
<polygon fill="black" stroke="black" points="147.96,-118.73 146.88,-108.19 141.15,-117.1 147.96,-118.73"/>
<g id="a_edge20&#45;headlabel"><a xlink:href="dir_000040_000311.html" target="_top" xlink:title="10">
<text text-anchor="middle" x="149.88" y="-120.39" font-family="Helvetica,sans-Serif" font-size="10.00">10</text>
</a>
</g>
</g>
<!-- dir_f61d47671007dfdb592580b61f960d39 -->
<g id="node11" class="node">
<title>dir_f61d47671007dfdb592580b61f960d39</title>
<g id="a_node11"><a xlink:href="dir_f61d47671007dfdb592580b61f960d39.html" target="_top" xlink:title="Support">
<polygon fill="none" stroke="black" points="268,-36 214,-36 214,0 268,0 268,-36"/>
<text text-anchor="middle" x="241" y="-15.5" font-family="Helvetica,sans-Serif" font-size="10.00">Support</text>
</a>
</g>
</g>
<!-- dir_832fe9af74a05d9f4772b8e442bafd02&#45;&gt;dir_f61d47671007dfdb592580b61f960d39 -->
<g id="edge21" class="edge">
<title>dir_832fe9af74a05d9f4772b8e442bafd02&#45;&gt;dir_f61d47671007dfdb592580b61f960d39</title>
<path fill="none" stroke="black" d="M110.1,-215.7C98.73,-184.12 80.13,-116.31 110,-72 130.82,-41.11 173.03,-28.22 203.93,-22.84"/>
<polygon fill="black" stroke="black" points="204.58,-26.28 213.92,-21.29 203.51,-19.37 204.58,-26.28"/>
<g id="a_edge21&#45;headlabel"><a xlink:href="dir_000040_000243.html" target="_top" xlink:title="7">
<text text-anchor="middle" x="201.46" y="-27.14" font-family="Helvetica,sans-Serif" font-size="10.00">7</text>
</a>
</g>
</g>
<!-- dir_cab9f8330899b1cc9d753b1d9c5c5a3e -->
<g id="node12" class="node">
<title>dir_cab9f8330899b1cc9d753b1d9c5c5a3e</title>
<g id="a_node12"><a xlink:href="dir_cab9f8330899b1cc9d753b1d9c5c5a3e.html" target="_top" xlink:title="Pass">
<polygon fill="none" stroke="black" points="580,-252 526,-252 526,-216 580,-216 580,-252"/>
<text text-anchor="middle" x="553" y="-231.5" font-family="Helvetica,sans-Serif" font-size="10.00">Pass</text>
</a>
</g>
</g>
<!-- dir_832fe9af74a05d9f4772b8e442bafd02&#45;&gt;dir_cab9f8330899b1cc9d753b1d9c5c5a3e -->
<g id="edge22" class="edge">
<title>dir_832fe9af74a05d9f4772b8e442bafd02&#45;&gt;dir_cab9f8330899b1cc9d753b1d9c5c5a3e</title>
<path fill="none" stroke="black" d="M149.79,-234C271.71,-234 393.63,-234 515.55,-234"/>
<polygon fill="black" stroke="black" points="515.83,-237.5 525.83,-234 515.83,-230.5 515.83,-237.5"/>
<g id="a_edge22&#45;headlabel"><a xlink:href="dir_000040_000064.html" target="_top" xlink:title="2">
<text text-anchor="middle" x="512.24" y="-237.84" font-family="Helvetica,sans-Serif" font-size="10.00">2</text>
</a>
</g>
</g>
<!-- dir_342ad3e7b83526a7f418520e380404a9 -->
<g id="node2" class="node">
<title>dir_342ad3e7b83526a7f418520e380404a9</title>
<text text-anchor="middle" x="475" y="-303.5" font-family="Helvetica,sans-Serif" font-size="10.00">Func</text>
</g>
<!-- dir_87d224bfe1930d02022e30bf19a95028 -->
<g id="node3" class="node">
<title>dir_87d224bfe1930d02022e30bf19a95028</title>
<g id="a_node3"><a xlink:href="dir_87d224bfe1930d02022e30bf19a95028.html" target="_top" xlink:title="Extensions">
<polygon fill="white" stroke="black" points="430,-324 360,-324 360,-288 430,-288 430,-324"/>
<text text-anchor="middle" x="395" y="-303.5" font-family="Helvetica,sans-Serif" font-size="10.00">Extensions</text>
</a>
</g>
</g>
<!-- dir_cded7aca5d33f7a3387ea90c18048a4b -->
<g id="node4" class="node">
<title>dir_cded7aca5d33f7a3387ea90c18048a4b</title>
<g id="a_node4"><a xlink:href="dir_cded7aca5d33f7a3387ea90c18048a4b.html" target="_top" xlink:title="IR">
<polygon fill="white" stroke="black" points="150,-324 96,-324 96,-288 150,-288 150,-324"/>
<text text-anchor="middle" x="123" y="-303.5" font-family="Helvetica,sans-Serif" font-size="10.00">IR</text>
</a>
</g>
</g>
<!-- dir_cded7aca5d33f7a3387ea90c18048a4b&#45;&gt;dir_84ef7c054b4edc3447cfba80cee80f65 -->
<g id="edge11" class="edge">
<title>dir_cded7aca5d33f7a3387ea90c18048a4b&#45;&gt;dir_84ef7c054b4edc3447cfba80cee80f65</title>
<path fill="none" stroke="black" d="M146.7,-287.96C165.39,-274.33 188.83,-256.74 192,-252 204.41,-233.46 210.42,-208.71 213.32,-190.03"/>
<polygon fill="black" stroke="black" points="216.79,-190.46 214.66,-180.08 209.86,-189.52 216.79,-190.46"/>
<g id="a_edge11&#45;headlabel"><a xlink:href="dir_000248_000057.html" target="_top" xlink:title="5">
<text text-anchor="middle" x="219.13" y="-191.9" font-family="Helvetica,sans-Serif" font-size="10.00">5</text>
</a>
</g>
</g>
<!-- dir_cded7aca5d33f7a3387ea90c18048a4b&#45;&gt;dir_51020c1b0909ae629a35fe1c65c620b9 -->
<g id="edge10" class="edge">
<title>dir_cded7aca5d33f7a3387ea90c18048a4b&#45;&gt;dir_51020c1b0909ae629a35fe1c65c620b9</title>
<path fill="none" stroke="black" d="M146.71,-287.86C150.75,-285.14 154.95,-282.42 159,-280 182.54,-265.92 194.46,-271.25 214,-252 250.94,-215.6 264.01,-153.78 268.59,-118.27"/>
<polygon fill="black" stroke="black" points="272.08,-118.49 269.75,-108.15 265.13,-117.69 272.08,-118.49"/>
<g id="a_edge10&#45;headlabel"><a xlink:href="dir_000248_000060.html" target="_top" xlink:title="1">
<text text-anchor="middle" x="274.49" y="-119.88" font-family="Helvetica,sans-Serif" font-size="10.00">1</text>
</a>
</g>
</g>
<!-- dir_cded7aca5d33f7a3387ea90c18048a4b&#45;&gt;dir_cf63c3ddb21c79ef735682489f4c6a69 -->
<g id="edge12" class="edge">
<title>dir_cded7aca5d33f7a3387ea90c18048a4b&#45;&gt;dir_cf63c3ddb21c79ef735682489f4c6a69</title>
<path fill="none" stroke="black" d="M98.9,-287.76C83.3,-276.01 65.15,-261 61,-252 52.82,-234.24 54.7,-226.51 61,-208 73.48,-171.32 102.6,-137.16 124.36,-115.34"/>
<polygon fill="black" stroke="black" points="127.01,-117.64 131.71,-108.15 122.12,-112.64 127.01,-117.64"/>
<g id="a_edge12&#45;headlabel"><a xlink:href="dir_000248_000311.html" target="_top" xlink:title="5">
<text text-anchor="middle" x="126.43" y="-119.68" font-family="Helvetica,sans-Serif" font-size="10.00">5</text>
</a>
</g>
</g>
<!-- dir_24c54df4815bd261e2d31c9fc2459801 -->
<g id="node5" class="node">
<title>dir_24c54df4815bd261e2d31c9fc2459801</title>
<g id="a_node5"><a xlink:href="dir_24c54df4815bd261e2d31c9fc2459801.html" target="_top" xlink:title="TransformOps">
<polygon fill="white" stroke="black" points="252,-324 168,-324 168,-288 252,-288 252,-324"/>
<text text-anchor="middle" x="210" y="-303.5" font-family="Helvetica,sans-Serif" font-size="10.00">TransformOps</text>
</a>
</g>
</g>
<!-- dir_24c54df4815bd261e2d31c9fc2459801&#45;&gt;dir_832fe9af74a05d9f4772b8e442bafd02 -->
<g id="edge8" class="edge">
<title>dir_24c54df4815bd261e2d31c9fc2459801&#45;&gt;dir_832fe9af74a05d9f4772b8e442bafd02</title>
<path fill="none" stroke="black" d="M187.01,-287.7C175.19,-278.8 160.61,-267.82 147.82,-258.2"/>
<polygon fill="black" stroke="black" points="149.82,-255.32 139.72,-252.1 145.61,-260.91 149.82,-255.32"/>
<g id="a_edge8&#45;headlabel"><a xlink:href="dir_000249_000040.html" target="_top" xlink:title="1">
<text text-anchor="middle" x="154.4" y="-252.71" font-family="Helvetica,sans-Serif" font-size="10.00">1</text>
</a>
</g>
</g>
<!-- dir_24c54df4815bd261e2d31c9fc2459801&#45;&gt;dir_84ef7c054b4edc3447cfba80cee80f65 -->
<g id="edge9" class="edge">
<title>dir_24c54df4815bd261e2d31c9fc2459801&#45;&gt;dir_84ef7c054b4edc3447cfba80cee80f65</title>
<path fill="none" stroke="black" d="M218.31,-287.79C222.74,-277.63 227.74,-264.38 230,-252 233.51,-232.76 232.94,-227.33 230,-208 229.11,-202.14 227.6,-195.98 225.89,-190.18"/>
<polygon fill="black" stroke="black" points="229.09,-188.69 222.7,-180.24 222.43,-190.83 229.09,-188.69"/>
<g id="a_edge9&#45;headlabel"><a xlink:href="dir_000249_000057.html" target="_top" xlink:title="1">
<text text-anchor="middle" x="232.89" y="-188.74" font-family="Helvetica,sans-Serif" font-size="10.00">1</text>
</a>
</g>
</g>
<!-- dir_24c54df4815bd261e2d31c9fc2459801&#45;&gt;dir_51020c1b0909ae629a35fe1c65c620b9 -->
<g id="edge7" class="edge">
<title>dir_24c54df4815bd261e2d31c9fc2459801&#45;&gt;dir_51020c1b0909ae629a35fe1c65c620b9</title>
<path fill="none" stroke="black" d="M224.76,-287.86C243.28,-265.06 273.95,-222.63 285,-180 290.31,-159.5 286.09,-135.78 280.93,-117.99"/>
<polygon fill="black" stroke="black" points="284.2,-116.74 277.85,-108.27 277.53,-118.86 284.2,-116.74"/>
<g id="a_edge7&#45;headlabel"><a xlink:href="dir_000249_000060.html" target="_top" xlink:title="1">
<text text-anchor="middle" x="288" y="-116.81" font-family="Helvetica,sans-Serif" font-size="10.00">1</text>
</a>
</g>
</g>
<!-- dir_a726045ead5ef226e867af9aff0db8f1 -->
<g id="node6" class="node">
<title>dir_a726045ead5ef226e867af9aff0db8f1</title>
<g id="a_node6"><a xlink:href="dir_a726045ead5ef226e867af9aff0db8f1.html" target="_top" xlink:title="Transforms">
<polygon fill="white" stroke="black" points="341.5,-324 270.5,-324 270.5,-288 341.5,-288 341.5,-324"/>
<text text-anchor="middle" x="306" y="-303.5" font-family="Helvetica,sans-Serif" font-size="10.00">Transforms</text>
</a>
</g>
</g>
<!-- dir_a726045ead5ef226e867af9aff0db8f1&#45;&gt;dir_84ef7c054b4edc3447cfba80cee80f65 -->
<g id="edge4" class="edge">
<title>dir_a726045ead5ef226e867af9aff0db8f1&#45;&gt;dir_84ef7c054b4edc3447cfba80cee80f65</title>
<path fill="none" stroke="black" d="M295.26,-287.79C283.12,-268.37 262.73,-235.86 245,-208 241.04,-201.78 236.76,-195.1 232.72,-188.84"/>
<polygon fill="black" stroke="black" points="235.42,-186.57 227.06,-180.07 229.54,-190.37 235.42,-186.57"/>
<g id="a_edge4&#45;headlabel"><a xlink:href="dir_000138_000057.html" target="_top" xlink:title="2">
<text text-anchor="middle" x="239.76" y="-185.55" font-family="Helvetica,sans-Serif" font-size="10.00">2</text>
</a>
</g>
</g>
<!-- dir_a726045ead5ef226e867af9aff0db8f1&#45;&gt;dir_f61d47671007dfdb592580b61f960d39 -->
<g id="edge6" class="edge">
<title>dir_a726045ead5ef226e867af9aff0db8f1&#45;&gt;dir_f61d47671007dfdb592580b61f960d39</title>
<path fill="none" stroke="black" d="M332.83,-287.88C338.64,-284.82 344.88,-281.98 351,-280 456.17,-246.07 643.76,-303.99 589,-208 522.14,-90.79 353.25,-42.21 278.08,-25.92"/>
<polygon fill="black" stroke="black" points="278.62,-22.46 268.11,-23.84 277.18,-29.31 278.62,-22.46"/>
<g id="a_edge6&#45;headlabel"><a xlink:href="dir_000138_000243.html" target="_top" xlink:title="1">
<text text-anchor="middle" x="282.72" y="-17.92" font-family="Helvetica,sans-Serif" font-size="10.00">1</text>
</a>
</g>
</g>
<!-- dir_a726045ead5ef226e867af9aff0db8f1&#45;&gt;dir_cab9f8330899b1cc9d753b1d9c5c5a3e -->
<g id="edge5" class="edge">
<title>dir_a726045ead5ef226e867af9aff0db8f1&#45;&gt;dir_cab9f8330899b1cc9d753b1d9c5c5a3e</title>
<path fill="none" stroke="black" d="M333.97,-287.85C339.48,-284.93 345.32,-282.16 351,-280 406.46,-258.93 474.42,-246.32 515.67,-240.02"/>
<polygon fill="black" stroke="black" points="516.44,-243.44 525.82,-238.52 515.41,-236.52 516.44,-243.44"/>
<g id="a_edge5&#45;headlabel"><a xlink:href="dir_000138_000064.html" target="_top" xlink:title="1">
<text text-anchor="middle" x="513.3" y="-244.28" font-family="Helvetica,sans-Serif" font-size="10.00">1</text>
</a>
</g>
</g>
<!-- dir_6e190719dcda51a3feaff264a0a599a2 -->
<g id="node7" class="node">
<title>dir_6e190719dcda51a3feaff264a0a599a2</title>
<g id="a_node7"><a xlink:href="dir_6e190719dcda51a3feaff264a0a599a2.html" target="_top" xlink:title="Utils">
<polygon fill="white" stroke="black" points="78,-324 24,-324 24,-288 78,-288 78,-324"/>
<text text-anchor="middle" x="51" y="-303.5" font-family="Helvetica,sans-Serif" font-size="10.00">Utils</text>
</a>
</g>
</g>
<!-- dir_6e190719dcda51a3feaff264a0a599a2&#45;&gt;dir_84ef7c054b4edc3447cfba80cee80f65 -->
<g id="edge15" class="edge">
<title>dir_6e190719dcda51a3feaff264a0a599a2&#45;&gt;dir_84ef7c054b4edc3447cfba80cee80f65</title>
<path fill="none" stroke="black" d="M73.69,-287.94C77.99,-285.09 82.54,-282.31 87,-280 119.34,-263.25 136.04,-275.33 164,-252 169.51,-247.4 188.55,-213.59 201.99,-189"/>
<polygon fill="black" stroke="black" points="205.12,-190.56 206.83,-180.1 198.97,-187.22 205.12,-190.56"/>
<g id="a_edge15&#45;headlabel"><a xlink:href="dir_000025_000057.html" target="_top" xlink:title="1">
<text text-anchor="middle" x="205.9" y="-192.58" font-family="Helvetica,sans-Serif" font-size="10.00">1</text>
</a>
</g>
</g>
<!-- dir_84ef7c054b4edc3447cfba80cee80f65&#45;&gt;dir_51020c1b0909ae629a35fe1c65c620b9 -->
<g id="edge1" class="edge">
<title>dir_84ef7c054b4edc3447cfba80cee80f65&#45;&gt;dir_51020c1b0909ae629a35fe1c65c620b9</title>
<path fill="none" stroke="black" d="M223.68,-143.7C229.41,-135.3 237.26,-125.07 244.97,-115.86"/>
<polygon fill="black" stroke="black" points="247.78,-117.96 251.67,-108.1 242.48,-113.39 247.78,-117.96"/>
<g id="a_edge1&#45;headlabel"><a xlink:href="dir_000057_000060.html" target="_top" xlink:title="3">
<text text-anchor="middle" x="247.59" y="-120.04" font-family="Helvetica,sans-Serif" font-size="10.00">3</text>
</a>
</g>
</g>
<!-- dir_84ef7c054b4edc3447cfba80cee80f65&#45;&gt;dir_cf63c3ddb21c79ef735682489f4c6a69 -->
<g id="edge2" class="edge">
<title>dir_84ef7c054b4edc3447cfba80cee80f65&#45;&gt;dir_cf63c3ddb21c79ef735682489f4c6a69</title>
<path fill="none" stroke="black" d="M194.02,-143.7C185.36,-135.3 175.66,-125.07 167.59,-115.86"/>
<polygon fill="black" stroke="black" points="170.14,-113.45 160.99,-108.1 164.81,-117.99 170.14,-113.45"/>
<g id="a_edge2&#45;headlabel"><a xlink:href="dir_000057_000311.html" target="_top" xlink:title="3">
<text text-anchor="middle" x="174.63" y="-111.84" font-family="Helvetica,sans-Serif" font-size="10.00">3</text>
</a>
</g>
</g>
<!-- dir_84ef7c054b4edc3447cfba80cee80f65&#45;&gt;dir_f61d47671007dfdb592580b61f960d39 -->
<g id="edge3" class="edge">
<title>dir_84ef7c054b4edc3447cfba80cee80f65&#45;&gt;dir_f61d47671007dfdb592580b61f960d39</title>
<path fill="none" stroke="black" d="M218.78,-143.92C221.72,-125.99 226.54,-96.99 231,-72 232.5,-63.57 234.21,-54.41 235.78,-46.11"/>
<polygon fill="black" stroke="black" points="239.24,-46.65 237.67,-36.17 232.36,-45.34 239.24,-46.65"/>
<g id="a_edge3&#45;headlabel"><a xlink:href="dir_000057_000243.html" target="_top" xlink:title="24">
<text text-anchor="middle" x="241.36" y="-48.21" font-family="Helvetica,sans-Serif" font-size="10.00">24</text>
</a>
</g>
</g>
<!-- dir_51020c1b0909ae629a35fe1c65c620b9&#45;&gt;dir_84ef7c054b4edc3447cfba80cee80f65 -->
<g id="edge13" class="edge">
<title>dir_51020c1b0909ae629a35fe1c65c620b9&#45;&gt;dir_84ef7c054b4edc3447cfba80cee80f65</title>
<path fill="none" stroke="black" d="M263.46,-108.1C257.76,-116.47 249.93,-126.69 242.21,-135.92"/>
<polygon fill="black" stroke="black" points="239.38,-133.84 235.51,-143.7 244.69,-138.4 239.38,-133.84"/>
<g id="a_edge13&#45;headlabel"><a xlink:href="dir_000060_000057.html" target="_top" xlink:title="9">
<text text-anchor="middle" x="239.58" y="-126.76" font-family="Helvetica,sans-Serif" font-size="10.00">9</text>
</a>
</g>
</g>
<!-- dir_51020c1b0909ae629a35fe1c65c620b9&#45;&gt;dir_f61d47671007dfdb592580b61f960d39 -->
<g id="edge14" class="edge">
<title>dir_51020c1b0909ae629a35fe1c65c620b9&#45;&gt;dir_f61d47671007dfdb592580b61f960d39</title>
<path fill="none" stroke="black" d="M263.58,-71.7C260.21,-63.81 256.13,-54.3 252.38,-45.55"/>
<polygon fill="black" stroke="black" points="255.49,-43.92 248.33,-36.1 249.05,-46.67 255.49,-43.92"/>
<g id="a_edge14&#45;headlabel"><a xlink:href="dir_000060_000243.html" target="_top" xlink:title="2">
<text text-anchor="middle" x="259.51" y="-43.6" font-family="Helvetica,sans-Serif" font-size="10.00">2</text>
</a>
</g>
</g>
<!-- dir_cf63c3ddb21c79ef735682489f4c6a69&#45;&gt;dir_84ef7c054b4edc3447cfba80cee80f65 -->
<g id="edge16" class="edge">
<title>dir_cf63c3ddb21c79ef735682489f4c6a69&#45;&gt;dir_84ef7c054b4edc3447cfba80cee80f65</title>
<path fill="none" stroke="black" d="M172.78,-108.1C181.42,-116.47 191.12,-126.69 199.21,-135.92"/>
<polygon fill="black" stroke="black" points="196.7,-138.36 205.85,-143.7 202.02,-133.82 196.7,-138.36"/>
<g id="a_edge16&#45;headlabel"><a xlink:href="dir_000311_000057.html" target="_top" xlink:title="61">
<text text-anchor="middle" x="192.2" y="-134.97" font-family="Helvetica,sans-Serif" font-size="10.00">61</text>
</a>
</g>
</g>
<!-- dir_cf63c3ddb21c79ef735682489f4c6a69&#45;&gt;dir_f61d47671007dfdb592580b61f960d39 -->
<g id="edge17" class="edge">
<title>dir_cf63c3ddb21c79ef735682489f4c6a69&#45;&gt;dir_f61d47671007dfdb592580b61f960d39</title>
<path fill="none" stroke="black" d="M173.25,-71.7C184.58,-62.88 198.53,-52.03 210.82,-42.47"/>
<polygon fill="black" stroke="black" points="213.26,-45.01 219.01,-36.1 208.97,-39.48 213.26,-45.01"/>
<g id="a_edge17&#45;headlabel"><a xlink:href="dir_000311_000243.html" target="_top" xlink:title="2">
<text text-anchor="middle" x="212.17" y="-46.95" font-family="Helvetica,sans-Serif" font-size="10.00">2</text>
</a>
</g>
</g>
<!-- dir_cab9f8330899b1cc9d753b1d9c5c5a3e&#45;&gt;dir_84ef7c054b4edc3447cfba80cee80f65 -->
<g id="edge23" class="edge">
<title>dir_cab9f8330899b1cc9d753b1d9c5c5a3e&#45;&gt;dir_84ef7c054b4edc3447cfba80cee80f65</title>
<path fill="none" stroke="black" d="M525.99,-227.39C465.97,-214.92 321.43,-184.9 253.04,-170.69"/>
<polygon fill="black" stroke="black" points="253.64,-167.24 243.14,-168.64 252.22,-174.1 253.64,-167.24"/>
<g id="a_edge23&#45;headlabel"><a xlink:href="dir_000064_000057.html" target="_top" xlink:title="4">
<text text-anchor="middle" x="257.74" y="-162.69" font-family="Helvetica,sans-Serif" font-size="10.00">4</text>
</a>
</g>
</g>
<!-- dir_cab9f8330899b1cc9d753b1d9c5c5a3e&#45;&gt;dir_f61d47671007dfdb592580b61f960d39 -->
<g id="edge24" class="edge">
<title>dir_cab9f8330899b1cc9d753b1d9c5c5a3e&#45;&gt;dir_f61d47671007dfdb592580b61f960d39</title>
<path fill="none" stroke="black" d="M528,-215.85C472.2,-177.58 337.51,-85.19 274.52,-41.99"/>
<polygon fill="black" stroke="black" points="276.35,-39 266.12,-36.23 272.39,-44.78 276.35,-39"/>
<g id="a_edge24&#45;headlabel"><a xlink:href="dir_000064_000243.html" target="_top" xlink:title="6">
<text text-anchor="middle" x="280.92" y="-36.19" font-family="Helvetica,sans-Serif" font-size="10.00">6</text>
</a>
</g>
</g>
</g>
</svg>
