<?xml version="1.0" encoding="UTF-8" standalone="no"?>
<!DOCTYPE svg PUBLIC "-//W3C//DTD SVG 1.1//EN"
 "http://www.w3.org/Graphics/SVG/1.1/DTD/svg11.dtd">
<!-- Generated by graphviz version 2.43.0 (0)
 -->
<!-- Title: Graphical Class Hierarchy Pages: 1 -->
<svg width="315pt" height="176pt"
 viewBox="0.00 0.00 315.00 175.50" xmlns="http://www.w3.org/2000/svg" xmlns:xlink="http://www.w3.org/1999/xlink">
<g id="graph0" class="graph" transform="scale(1 1) rotate(0) translate(4 171.5)">
<title>Graphical Class Hierarchy</title>
<!-- Node1570 -->
<g id="node1" class="node">
<title>Node1570</title>
<g id="a_node1"><a xlink:title=" ">
<polygon fill="none" stroke="#bfbfbf" points="0,-79 0,-98 125,-98 125,-79 0,-79"/>
<text text-anchor="middle" x="62.5" y="-86" font-family="Helvetica,sans-Serif" font-size="10.00">llvm::mapped_iterator</text>
</a>
</g>
</g>
<!-- Node0 -->
<g id="node2" class="node">
<title>Node0</title>
<g id="a_node2"><a xlink:href="classmlir_1_1PredecessorIterator.html" target="_top" xlink:title="Implement a predecessor iterator for blocks.">
<polygon fill="none" stroke="black" points="165.5,-148 165.5,-167 302.5,-167 302.5,-148 165.5,-148"/>
<text text-anchor="middle" x="234" y="-155" font-family="Helvetica,sans-Serif" font-size="10.00">mlir::PredecessorIterator</text>
</a>
</g>
</g>
<!-- Node1570&#45;&gt;Node0 -->
<g id="edge1" class="edge">
<title>Node1570&#45;&gt;Node0</title>
<path fill="none" stroke="midnightblue" d="M88.32,-103.12C107.62,-114.03 135.35,-128.67 161,-138.5 170.42,-142.11 180.78,-145.28 190.64,-147.95"/>
<polygon fill="midnightblue" stroke="midnightblue" points="89.98,-100.04 79.56,-98.11 86.5,-106.12 89.98,-100.04"/>
</g>
<!-- Node1572 -->
<g id="node3" class="node">
<title>Node1572</title>
<g id="a_node3"><a xlink:href="structmlir_1_1spirv_1_1VerCapExtAttr_1_1cap__iterator.html" target="_top" xlink:title=" ">
<polygon fill="none" stroke="black" points="164,-98.5 164,-128.5 304,-128.5 304,-98.5 164,-98.5"/>
<text text-anchor="start" x="172" y="-116.5" font-family="Helvetica,sans-Serif" font-size="10.00">mlir::spirv::VerCapExtAttr</text>
<text text-anchor="middle" x="234" y="-105.5" font-family="Helvetica,sans-Serif" font-size="10.00">::cap_iterator</text>
</a>
</g>
</g>
<!-- Node1570&#45;&gt;Node1572 -->
<g id="edge2" class="edge">
<title>Node1570&#45;&gt;Node1572</title>
<path fill="none" stroke="midnightblue" d="M135.34,-99.1C144.81,-100.49 154.49,-101.92 163.92,-103.31"/>
<polygon fill="midnightblue" stroke="midnightblue" points="135.58,-95.59 125.17,-97.6 134.56,-102.52 135.58,-95.59"/>
</g>
<!-- Node1573 -->
<g id="node4" class="node">
<title>Node1573</title>
<g id="a_node4"><a xlink:href="structmlir_1_1spirv_1_1VerCapExtAttr_1_1ext__iterator.html" target="_top" xlink:title=" ">
<polygon fill="none" stroke="black" points="164,-49.5 164,-79.5 304,-79.5 304,-49.5 164,-49.5"/>
<text text-anchor="start" x="172" y="-67.5" font-family="Helvetica,sans-Serif" font-size="10.00">mlir::spirv::VerCapExtAttr</text>
<text text-anchor="middle" x="234" y="-56.5" font-family="Helvetica,sans-Serif" font-size="10.00">::ext_iterator</text>
</a>
</g>
</g>
<!-- Node1570&#45;&gt;Node1573 -->
<g id="edge3" class="edge">
<title>Node1570&#45;&gt;Node1573</title>
<path fill="none" stroke="midnightblue" d="M135.34,-78.33C144.81,-76.99 154.49,-75.62 163.92,-74.28"/>
<polygon fill="midnightblue" stroke="midnightblue" points="134.58,-74.9 125.17,-79.77 135.56,-81.83 134.58,-74.9"/>
</g>
<!-- Node1574 -->
<g id="node5" class="node">
<title>Node1574</title>
<g id="a_node5"><a xlink:href="structmlir_1_1tblgen_1_1Operator_1_1VariableDecoratorIterator.html" target="_top" xlink:title="A utility iterator over a list of variable decorators.">
<polygon fill="none" stroke="black" points="161,-0.5 161,-30.5 307,-30.5 307,-0.5 161,-0.5"/>
<text text-anchor="start" x="169" y="-18.5" font-family="Helvetica,sans-Serif" font-size="10.00">mlir::tblgen::Operator</text>
<text text-anchor="middle" x="234" y="-7.5" font-family="Helvetica,sans-Serif" font-size="10.00">::VariableDecoratorIterator</text>
</a>
</g>
</g>
<!-- Node1570&#45;&gt;Node1574 -->
<g id="edge4" class="edge">
<title>Node1570&#45;&gt;Node1574</title>
<path fill="none" stroke="midnightblue" d="M90.28,-74.2C109.64,-64.14 136.58,-50.71 161,-40.5 169.3,-37.03 178.27,-33.64 186.97,-30.53"/>
<polygon fill="midnightblue" stroke="midnightblue" points="88.4,-71.24 81.16,-78.98 91.65,-77.44 88.4,-71.24"/>
</g>
</g>
</svg>
