<?xml version="1.0" encoding="UTF-8" standalone="no"?>
<!DOCTYPE svg PUBLIC "-//W3C//DTD SVG 1.1//EN"
 "http://www.w3.org/Graphics/SVG/1.1/DTD/svg11.dtd">
<!-- Generated by graphviz version 2.43.0 (0)
 -->
<!-- Title: mlir::GPUFuncOpLowering Pages: 1 -->
<svg width="1312pt" height="61pt"
 viewBox="0.00 0.00 1312.00 61.00" xmlns="http://www.w3.org/2000/svg" xmlns:xlink="http://www.w3.org/1999/xlink">
<g id="graph0" class="graph" transform="scale(1 1) rotate(0) translate(4 57)">
<title>mlir::GPUFuncOpLowering</title>
<!-- Node1 -->
<g id="node1" class="node">
<title>Node1</title>
<g id="a_node1"><a xlink:title=" ">
<polygon fill="#bfbfbf" stroke="black" points="1161,-28 1161,-47 1304,-47 1304,-28 1161,-28"/>
<text text-anchor="middle" x="1232.5" y="-35" font-family="Helvetica,sans-Serif" font-size="10.00">mlir::GPUFuncOpLowering</text>
</a>
</g>
</g>
<!-- Node2 -->
<g id="node2" class="node">
<title>Node2</title>
<g id="a_node2"><a xlink:href="classmlir_1_1ConvertOpToLLVMPattern.html" target="_top" xlink:title=" ">
<polygon fill="none" stroke="black" points="960,-22.5 960,-52.5 1124,-52.5 1124,-22.5 960,-22.5"/>
<text text-anchor="start" x="968" y="-40.5" font-family="Helvetica,sans-Serif" font-size="10.00">mlir::ConvertOpToLLVMPattern</text>
<text text-anchor="middle" x="1042" y="-29.5" font-family="Helvetica,sans-Serif" font-size="10.00">&lt; gpu::GPUFuncOp &gt;</text>
</a>
</g>
</g>
<!-- Node2&#45;&gt;Node1 -->
<g id="edge1" class="edge">
<title>Node2&#45;&gt;Node1</title>
<path fill="none" stroke="midnightblue" d="M1134.15,-37.5C1143.15,-37.5 1152.18,-37.5 1160.92,-37.5"/>
<polygon fill="midnightblue" stroke="midnightblue" points="1134.03,-34 1124.03,-37.5 1134.03,-41 1134.03,-34"/>
</g>
<!-- Node3 -->
<g id="node3" class="node">
<title>Node3</title>
<g id="a_node3"><a xlink:href="classmlir_1_1ConvertToLLVMPattern.html" target="_top" xlink:title="Base class for operation conversions targeting the LLVM IR dialect.">
<polygon fill="none" stroke="black" points="433,-28 433,-47 584,-47 584,-28 433,-28"/>
<text text-anchor="middle" x="508.5" y="-35" font-family="Helvetica,sans-Serif" font-size="10.00">mlir::ConvertToLLVMPattern</text>
</a>
</g>
</g>
<!-- Node3&#45;&gt;Node2 -->
<g id="edge2" class="edge">
<title>Node3&#45;&gt;Node2</title>
<path fill="none" stroke="midnightblue" d="M594.3,-42.22C596.9,-42.32 599.47,-42.42 602,-42.5 753.03,-47.55 791.01,-51.59 942,-45.5 947.86,-45.26 953.91,-44.95 959.99,-44.58"/>
<polygon fill="midnightblue" stroke="midnightblue" points="594.34,-38.72 584.21,-41.8 594.05,-45.71 594.34,-38.72"/>
</g>
<!-- Node7 -->
<g id="node7" class="node">
<title>Node7</title>
<g id="a_node7"><a xlink:href="classmlir_1_1ConvertOpToLLVMPattern.html" target="_top" xlink:title="Utility class for operation conversions targeting the LLVM dialect that match exactly one source oper...">
<polygon fill="none" stroke="black" points="621,-0.5 621,-30.5 817,-30.5 817,-0.5 621,-0.5"/>
<text text-anchor="start" x="629" y="-18.5" font-family="Helvetica,sans-Serif" font-size="10.00">mlir::ConvertOpToLLVMPattern</text>
<text text-anchor="middle" x="719" y="-7.5" font-family="Helvetica,sans-Serif" font-size="10.00">&lt; SourceOp, FailOnUnsupportedFP &gt;</text>
</a>
</g>
</g>
<!-- Node3&#45;&gt;Node7 -->
<g id="edge7" class="edge">
<title>Node3&#45;&gt;Node7</title>
<path fill="none" stroke="midnightblue" d="M594.36,-28.55C603.11,-27.62 612.06,-26.68 620.93,-25.74"/>
<polygon fill="midnightblue" stroke="midnightblue" points="593.76,-25.09 584.18,-29.62 594.5,-32.05 593.76,-25.09"/>
</g>
<!-- Node4 -->
<g id="node4" class="node">
<title>Node4</title>
<g id="a_node4"><a xlink:href="classmlir_1_1ConversionPattern.html" target="_top" xlink:title="Base class for the conversion patterns.">
<polygon fill="none" stroke="black" points="265,-28 265,-47 396,-47 396,-28 265,-28"/>
<text text-anchor="middle" x="330.5" y="-35" font-family="Helvetica,sans-Serif" font-size="10.00">mlir::ConversionPattern</text>
</a>
</g>
</g>
<!-- Node4&#45;&gt;Node3 -->
<g id="edge3" class="edge">
<title>Node4&#45;&gt;Node3</title>
<path fill="none" stroke="midnightblue" d="M406.26,-37.5C415.06,-37.5 424.04,-37.5 432.84,-37.5"/>
<polygon fill="midnightblue" stroke="midnightblue" points="406.04,-34 396.04,-37.5 406.04,-41 406.04,-34"/>
</g>
<!-- Node5 -->
<g id="node5" class="node">
<title>Node5</title>
<g id="a_node5"><a xlink:href="classmlir_1_1RewritePattern.html" target="_top" xlink:title="RewritePattern is the common base class for all DAG to DAG replacements.">
<polygon fill="none" stroke="black" points="114,-28 114,-47 228,-47 228,-28 114,-28"/>
<text text-anchor="middle" x="171" y="-35" font-family="Helvetica,sans-Serif" font-size="10.00">mlir::RewritePattern</text>
</a>
</g>
</g>
<!-- Node5&#45;&gt;Node4 -->
<g id="edge4" class="edge">
<title>Node5&#45;&gt;Node4</title>
<path fill="none" stroke="midnightblue" d="M238.54,-37.5C247.27,-37.5 256.21,-37.5 264.9,-37.5"/>
<polygon fill="midnightblue" stroke="midnightblue" points="238.42,-34 228.42,-37.5 238.42,-41 238.42,-34"/>
</g>
<!-- Node6 -->
<g id="node6" class="node">
<title>Node6</title>
<g id="a_node6"><a xlink:href="classmlir_1_1Pattern.html" target="_top" xlink:title="This class contains all of the data related to a pattern, but does not contain any methods or logic f...">
<polygon fill="none" stroke="black" points="0,-28 0,-47 77,-47 77,-28 0,-28"/>
<text text-anchor="middle" x="38.5" y="-35" font-family="Helvetica,sans-Serif" font-size="10.00">mlir::Pattern</text>
</a>
</g>
</g>
<!-- Node6&#45;&gt;Node5 -->
<g id="edge5" class="edge">
<title>Node6&#45;&gt;Node5</title>
<path fill="none" stroke="midnightblue" d="M87.47,-37.5C96.06,-37.5 105.09,-37.5 113.89,-37.5"/>
<polygon fill="midnightblue" stroke="midnightblue" points="87.25,-34 77.25,-37.5 87.25,-41 87.25,-34"/>
</g>
<!-- Node7&#45;&gt;Node2 -->
<g id="edge6" class="edge">
<title>Node7&#45;&gt;Node2</title>
<path fill="none" stroke="orange" stroke-dasharray="5,2" d="M827.18,-22.85C870.47,-25.81 919.59,-29.18 959.82,-31.94"/>
<polygon fill="orange" stroke="orange" points="827.4,-19.35 817.18,-22.16 826.92,-26.34 827.4,-19.35"/>
<text text-anchor="middle" x="888.5" y="-33.5" font-family="Helvetica,sans-Serif" font-size="10.00"> &lt; gpu::GPUFuncOp &gt;</text>
</g>
</g>
</svg>
