<?xml version="1.0" encoding="UTF-8" standalone="no"?>
<!DOCTYPE svg PUBLIC "-//W3C//DTD SVG 1.1//EN"
 "http://www.w3.org/Graphics/SVG/1.1/DTD/svg11.dtd">
<!-- Generated by graphviz version 2.43.0 (0)
 -->
<!-- Title: mlir::python::MLIR_BINDINGS_PYTHON_DOMAIN::quant::UniformQuantizedType Pages: 1 -->
<svg width="1144pt" height="100pt"
 viewBox="0.00 0.00 1144.00 99.50" xmlns="http://www.w3.org/2000/svg" xmlns:xlink="http://www.w3.org/1999/xlink">
<g id="graph0" class="graph" transform="scale(1 1) rotate(0) translate(4 95.5)">
<title>mlir::python::MLIR_BINDINGS_PYTHON_DOMAIN::quant::UniformQuantizedType</title>
<!-- Node1 -->
<g id="node1" class="node">
<title>Node1</title>
<g id="a_node1"><a xlink:title=" ">
<polygon fill="#bfbfbf" stroke="black" points="968,-33 968,-74 1136,-74 1136,-33 968,-33"/>
<text text-anchor="start" x="976" y="-62" font-family="Helvetica,sans-Serif" font-size="10.00">mlir::python::MLIR</text>
<text text-anchor="start" x="976" y="-51" font-family="Helvetica,sans-Serif" font-size="10.00">_BINDINGS_PYTHON_DOMAIN</text>
<text text-anchor="middle" x="1052" y="-40" font-family="Helvetica,sans-Serif" font-size="10.00">::quant::UniformQuantizedType</text>
</a>
</g>
</g>
<!-- Node2 -->
<g id="node2" class="node">
<title>Node2</title>
<g id="a_node2"><a xlink:href="classmlir_1_1python_1_1MLIR__BINDINGS__PYTHON__DOMAIN_1_1PyConcreteType.html" target="_top" xlink:title=" ">
<polygon fill="none" stroke="black" points="730,-27.5 730,-79.5 931,-79.5 931,-27.5 730,-27.5"/>
<text text-anchor="start" x="738" y="-67.5" font-family="Helvetica,sans-Serif" font-size="10.00">mlir::python::MLIR</text>
<text text-anchor="start" x="738" y="-56.5" font-family="Helvetica,sans-Serif" font-size="10.00">_BINDINGS_PYTHON_DOMAIN</text>
<text text-anchor="start" x="738" y="-45.5" font-family="Helvetica,sans-Serif" font-size="10.00">::PyConcreteType&lt; UniformQuantized</text>
<text text-anchor="middle" x="830.5" y="-34.5" font-family="Helvetica,sans-Serif" font-size="10.00">Type, QuantizedType &gt;</text>
</a>
</g>
</g>
<!-- Node2&#45;&gt;Node1 -->
<g id="edge1" class="edge">
<title>Node2&#45;&gt;Node1</title>
<path fill="none" stroke="midnightblue" d="M941.35,-53.5C950.27,-53.5 959.19,-53.5 967.87,-53.5"/>
<polygon fill="midnightblue" stroke="midnightblue" points="941.29,-50 931.29,-53.5 941.29,-57 941.29,-50"/>
</g>
<!-- Node3 -->
<g id="node3" class="node">
<title>Node3</title>
<g id="a_node3"><a xlink:title=" ">
<polygon fill="none" stroke="#bfbfbf" points="437.5,-72 437.5,-91 526.5,-91 526.5,-72 437.5,-72"/>
<text text-anchor="middle" x="482" y="-79" font-family="Helvetica,sans-Serif" font-size="10.00">QuantizedType</text>
</a>
</g>
</g>
<!-- Node3&#45;&gt;Node2 -->
<g id="edge2" class="edge">
<title>Node3&#45;&gt;Node2</title>
<path fill="none" stroke="midnightblue" d="M536.67,-79.09C583.12,-76.8 652.07,-72.9 712,-67.5 717.83,-66.97 723.82,-66.39 729.86,-65.77"/>
<polygon fill="midnightblue" stroke="midnightblue" points="536.35,-75.6 526.53,-79.59 536.69,-82.6 536.35,-75.6"/>
</g>
<!-- Node4 -->
<g id="node4" class="node">
<title>Node4</title>
<g id="a_node4"><a xlink:href="classmlir_1_1python_1_1MLIR__BINDINGS__PYTHON__DOMAIN_1_1PyConcreteType.html" target="_top" xlink:title="CRTP base classes for Python types that subclass Type and should be castable from it (i....">
<polygon fill="none" stroke="black" points="400,-0.5 400,-52.5 564,-52.5 564,-0.5 400,-0.5"/>
<text text-anchor="start" x="408" y="-40.5" font-family="Helvetica,sans-Serif" font-size="10.00">mlir::python::MLIR</text>
<text text-anchor="start" x="408" y="-29.5" font-family="Helvetica,sans-Serif" font-size="10.00">_BINDINGS_PYTHON_DOMAIN</text>
<text text-anchor="start" x="408" y="-18.5" font-family="Helvetica,sans-Serif" font-size="10.00">::PyConcreteType&lt; DerivedTy,</text>
<text text-anchor="middle" x="482" y="-7.5" font-family="Helvetica,sans-Serif" font-size="10.00"> BaseTy &gt;</text>
</a>
</g>
</g>
<!-- Node4&#45;&gt;Node2 -->
<g id="edge3" class="edge">
<title>Node4&#45;&gt;Node2</title>
<path fill="none" stroke="orange" stroke-dasharray="5,2" d="M574.28,-33.61C622.15,-37.34 680.86,-41.92 729.9,-45.74"/>
<polygon fill="orange" stroke="orange" points="574.48,-30.12 564.24,-32.83 573.94,-37.1 574.48,-30.12"/>
<text text-anchor="start" x="582" y="-58.5" font-family="Helvetica,sans-Serif" font-size="10.00"> &lt; UniformQuantizedType,</text>
<text text-anchor="middle" x="647" y="-47.5" font-family="Helvetica,sans-Serif" font-size="10.00"> QuantizedType &gt;</text>
</g>
<!-- Node5 -->
<g id="node5" class="node">
<title>Node5</title>
<g id="a_node5"><a xlink:href="classmlir_1_1python_1_1MLIR__BINDINGS__PYTHON__DOMAIN_1_1PyType.html" target="_top" xlink:title="Wrapper around the generic MlirType.">
<polygon fill="none" stroke="black" points="200,-6 200,-47 363,-47 363,-6 200,-6"/>
<text text-anchor="start" x="208" y="-35" font-family="Helvetica,sans-Serif" font-size="10.00">mlir::python::MLIR</text>
<text text-anchor="start" x="208" y="-24" font-family="Helvetica,sans-Serif" font-size="10.00">_BINDINGS_PYTHON_DOMAIN</text>
<text text-anchor="middle" x="281.5" y="-13" font-family="Helvetica,sans-Serif" font-size="10.00">::PyType</text>
</a>
</g>
</g>
<!-- Node5&#45;&gt;Node4 -->
<g id="edge4" class="edge">
<title>Node5&#45;&gt;Node4</title>
<path fill="none" stroke="midnightblue" d="M373.45,-26.5C382.2,-26.5 391.04,-26.5 399.69,-26.5"/>
<polygon fill="midnightblue" stroke="midnightblue" points="373.24,-23 363.24,-26.5 373.24,-30 373.24,-23"/>
</g>
<!-- Node6 -->
<g id="node6" class="node">
<title>Node6</title>
<g id="a_node6"><a xlink:href="classmlir_1_1python_1_1MLIR__BINDINGS__PYTHON__DOMAIN_1_1BaseContextObject.html" target="_top" xlink:title="Base class for all objects that directly or indirectly depend on an MlirContext.">
<polygon fill="none" stroke="black" points="0,-6 0,-47 163,-47 163,-6 0,-6"/>
<text text-anchor="start" x="8" y="-35" font-family="Helvetica,sans-Serif" font-size="10.00">mlir::python::MLIR</text>
<text text-anchor="start" x="8" y="-24" font-family="Helvetica,sans-Serif" font-size="10.00">_BINDINGS_PYTHON_DOMAIN</text>
<text text-anchor="middle" x="81.5" y="-13" font-family="Helvetica,sans-Serif" font-size="10.00">::BaseContextObject</text>
</a>
</g>
</g>
<!-- Node6&#45;&gt;Node5 -->
<g id="edge5" class="edge">
<title>Node6&#45;&gt;Node5</title>
<path fill="none" stroke="midnightblue" d="M173.32,-26.5C182.12,-26.5 191.02,-26.5 199.72,-26.5"/>
<polygon fill="midnightblue" stroke="midnightblue" points="173.03,-23 163.03,-26.5 173.03,-30 173.03,-23"/>
</g>
</g>
</svg>
